<?xml version="1.0" encoding="UTF-8" standalone="no"?>
<!-- Created with Inkscape (http://www.inkscape.org/) -->

<svg
   xmlns:dc="http://purl.org/dc/elements/1.1/"
   xmlns:cc="http://creativecommons.org/ns#"
   xmlns:rdf="http://www.w3.org/1999/02/22-rdf-syntax-ns#"
   xmlns:svg="http://www.w3.org/2000/svg"
   xmlns="http://www.w3.org/2000/svg"
   version="1.1"
   width="200"
   height="137.34506"
   viewBox="0 0 200 137.34506"
   id="svg3023"
   xml:space="preserve"><metadata
   id="metadata3059"><rdf:RDF><cc:Work
       rdf:about=""><dc:format>image/svg+xml</dc:format><dc:type
         rdf:resource="http://purl.org/dc/dcmitype/StillImage" /><dc:title></dc:title></cc:Work></rdf:RDF></metadata><defs
   id="defs3057" />
<g
   transform="matrix(0.35384349,0,0,0.35384349,0.17692175,-59.750013)"
   id="g3025">
	<path
   d="m 226.773,374.792 c 5.837,-0.913 12.221,-2.189 18.605,-4.195 l 0.639,-0.639 c 3.375,-0.729 6.293,-1.003 9.941,-1.003 l 1.915,-1.003 c 29.731,0 59.281,0 89.195,0.638 l 1.276,1.003 c 5.838,1.004 12.404,3.466 18.605,2.828 l 2.827,1.368 c 4.195,0.273 8.847,0.547 13.314,1.642 11.401,0 22.528,4.833 34.201,5.381 9.759,3.648 19.79,6.84 29.276,10.67 5.836,2.554 12.312,3.283 19.061,3.922 8.573,3.921 16.963,7.205 26.084,10.032 9.029,3.01 17.875,6.475 25.992,7.843 1.915,1.277 4.195,2.554 6.475,3.831 4.561,0.638 9.121,3.284 13.59,4.56 h 2.006 c 1.004,0.365 2.372,0.365 2.918,1.277 l 0.365,1.095 c 2.554,0.547 3.922,2.827 7.479,3.83 1.642,2.28 3.922,2.919 6.11,5.472 1.368,0 1.368,1.004 3.01,1.368 1.916,1.277 0,4.195 0.912,6.385 0,1.094 -1.277,0.456 -1.642,1.641 l 0.729,1.095 c 1.55,0.274 2.919,0.912 4.834,1.55 0.638,1.004 -0.274,2.281 0,3.558 l -1.368,1.277 c 0,2.007 0.456,4.56 0.456,6.931 -1.642,0 -2.372,0.912 -3.01,2.188 -0.274,1.643 0.638,2.919 0.638,4.834 l -0.273,0.729 c -4.833,0.912 -9.758,0 -14.956,1.277 l 0.638,0.639 c 0.912,0.364 1.642,0 2.919,0.364 0.638,0.912 1.915,1.642 2.645,3.192 -4.925,1.003 -9.485,-0.365 -14.684,-0.365 v 2.007 l 1.915,1.003 c 0.365,0.639 0.365,1.915 1.369,2.553 0.638,3.284 -1.369,6.202 -0.639,9.759 -0.365,1.278 -1.643,1.278 -2.646,2.554 0,1.642 1.368,4.287 -0.273,5.838 -2.918,0 -5.563,-0.639 -8.755,-0.912 -0.365,0.273 -1.643,0.912 -3.011,0.912 l -1.914,-1.277 c -0.913,-0.273 -1.368,-1.276 -2.919,-1.551 -0.639,0 -1.642,0 -2.645,-0.638 l -1.186,-1.642 c -3.648,0 -7.57,-1.004 -10.762,-3.01 -39.673,-8.665 -79.346,-9.029 -119.018,-13.589 -18.515,1.642 -36.024,-2.28 -53.262,0.639 -35.568,2.554 -71.502,2.917 -106.979,10.122 v -96.217 c 1.368,-0.638 3.74,-1.367 4.651,-0.182 2.28,0 3.557,-1.277 5.836,-1.277 l 2.919,-1.916 c 4.56,0.913 8.846,-1.003 12.768,0.639 l 0.729,-0.365 -0.729,-0.638 c -0.912,-0.639 -1.916,-0.639 -2.554,-1.003 h -1.003 c -4.287,1.641 -8.208,-1.551 -11.765,1.367 -3.74,-0.821 -7.296,-0.546 -10.853,0.092 v -8.483 z M 108.85,518.707 c -1.915,-0.547 -3.283,-1.641 -5.837,-1.186 l -1.915,0.913 c -1.003,0 -1.642,0 -3.01,0 l -2.827,-1.368 c -3.921,1.094 -7.479,0 -11.765,0.729 l -1.642,-1.276 c -5.837,-1.642 -10.032,-4.56 -16.143,-5.29 -1.095,-0.273 -1.368,-1.185 -3.009,-1.55 -4.561,-0.639 -9.759,-3.284 -14.593,-3.284 -2.645,-1.641 -5.198,-3.83 -8.847,-4.468 -0.273,-0.729 -0.273,-1.642 -0.912,-2.646 -1.277,-0.365 -2.645,-0.912 -3.922,-2.006 -1.003,-2.189 -3.557,-2.827 -4.833,-4.834 -1.003,0 -1.642,-0.639 -2.918,-1.003 -1.368,-2.188 -3.283,-4.195 -4.925,-6.476 -0.912,-0.273 -2.28,-0.273 -2.919,-1.277 -0.638,-0.638 -1.003,-2.279 -1.641,-3.921 -1.003,-0.639 -1.276,-1.915 -1.916,-3.557 -0.273,-0.273 -1.642,-1.551 -2.28,-2.28 -2.918,-6.476 -4.195,-13.954 -7.114,-20.43 0,-2.645 -0.364,-4.925 -0.364,-7.751 l 0.912,-1.368 c 1.003,-0.273 2.645,0 3.921,-0.273 l 1.642,-1.642 c 1.003,0 1.641,-0.639 3.009,-0.912 l 0.913,-0.729 c 5.563,-7.114 9.758,-14.866 17.875,-19.518 l 0.638,-1.915 c 1.003,-0.912 2.645,-1.277 3.648,-2.28 l 0.639,-0.912 1.915,-1.004 c 1.642,0 2.918,0 4.833,0.639 l 1.003,1.915 c 0.639,1.003 2.281,1.368 4.195,2.372 2.281,1.915 5.291,4.469 7.479,7.113 1.003,1.277 2.918,0.273 4.561,1.551 l 0.729,0.639 c 10.306,1.642 21.068,5.289 32.103,3.648 l 1.915,-1.004 c 2.645,0.365 4.925,-0.639 7.843,-1.003 6.84,-1.916 13.68,-3.558 20.793,-6.111 h 1.003 c 1.642,0 2.189,-1.642 3.557,-2.279 1.003,0 1.641,0 2.918,0 7.843,-1.916 17.237,-5.563 25.993,-5.837 l 2.006,-2.28 c 0.638,-0.273 1.641,-0.273 2.554,-1.003 0.729,0 1.642,0 2.645,-0.638 1.551,-1.276 2.554,-2.554 4.195,-4.195 l 2.006,-0.273 c 1.186,-1.368 3.192,-2.371 4.469,-4.287 2.006,-1.55 2.554,-2.28 3.922,-2.28 2.918,-2.28 5.198,-6.202 8.391,-9.759 1.003,-1.276 1.642,-3.557 2.645,-5.746 1.642,-0.912 1.277,-3.921 3.192,-5.107 9.211,-2.645 18.605,-1.003 27.361,-5.837 1.276,-0.183 2.554,-0.457 3.83,-0.638 v 8.481 c -3.192,0.547 -6.384,1.368 -9.667,1.824 l -2.006,1.003 c -4.195,-0.638 -7.114,1.824 -10.671,2.827 -1.277,-0.365 -2.918,0.912 -3.921,0.638 l -0.639,0.912 1.003,0.365 c 2.28,-1.003 4.925,0.638 6.841,-0.639 0.638,-1.277 1.276,-1.277 2.28,-1.642 l 0.912,0.365 c 1.368,-0.729 1.642,-1.642 3.01,-1.642 3.556,0 7.022,0.912 9.667,-0.912 1.276,0.274 2.006,0.274 2.918,0.274 0.091,0 0.182,0 0.273,-0.092 v 96.217 c -10.214,2.007 -20.338,4.652 -30.461,8.117 -2.28,0.274 -3.284,2.828 -6.566,2.828 -1.916,1.003 -3.831,3.557 -7.114,4.65 -11.673,0.274 -24.351,5.837 -34.748,10.944 -9.394,3.558 -19.791,2.919 -28.911,7.479 -2.006,0 -3.648,0.274 -5.836,0.274 l -4.285,1.643 z"
   id="path3027"
   style="fill:#00a0e9;fill-rule:evenodd" />
	<path
   d="m 356.37,365.672 c 6.475,-1.642 11.126,-5.837 14.318,-11.035 0,-4.287 0,-8.117 -0.273,-12.677 l -1.368,-1.003 h -1.915 l -2.007,-0.638 -0.912,-0.729 c -1.641,-1.551 -1.915,-4.743 -3.921,-6.658 -0.64,-2.28 -2.281,-4.195 -4.196,-5.837 -1.914,-1.916 -2.279,-4.56 -4.56,-6.475 -2.007,-11.674 -8.755,-19.882 -13.315,-30.552 0,-1.277 -0.639,-3.284 -1.642,-4.469 -1.277,-4.652 -3.283,-8.573 -5.836,-11.765 0,-1.916 0,-3.557 -0.274,-5.837 -2.646,-6.201 -5.837,-12.039 -9.12,-18.514 -2.645,-2.279 -4.56,-5.836 -6.931,-9.12 l -0.912,-0.638 c -0.274,-1.277 -1.277,-2.28 -1.916,-3.648 -2.279,-1.277 -3.283,-3.922 -5.563,-6.111 -0.274,-1.094 -1.369,-1.368 -1.642,-3.01 -3.558,-2.28 -4.834,-6.749 -9.759,-9.394 -1.915,-1.642 -3.557,-3.192 -5.836,-4.833 -9.667,-2.006 -20.064,2.28 -30.096,2.827 -3.01,2.645 -6.203,4.925 -9.759,7.205 l -1.003,1.916 c -5.837,2.919 -13.315,-1.277 -18.514,-3.83 -1.277,-0.639 -2.645,-2.28 -3.921,-3.01 -2.919,-3.922 -5.837,-7.387 -8.755,-11.674 -4.561,-10.032 -11.492,-18.787 -19.244,-26.904 -1.642,-1.003 -3.648,-2.28 -5.29,-3.557 -0.912,-0.273 -1.186,-1.368 -2.827,-1.642 -3.647,-0.274 -6.931,-1.277 -10.762,-1.003 -1.915,0.365 -3.557,1.642 -5.837,1.642 l -1.915,1.003 c -0.639,0.912 -1.915,1.277 -2.28,2.918 -3.922,4.195 -9.121,9.12 -12.039,13.953 -2.919,4.195 -3.831,7.114 -7.114,10.397 -5.198,12.039 -11.765,23.713 -18.513,34.475 -3.557,4.286 -5.199,10.123 -10.033,13.68 -1.003,0.638 -1.003,2.28 -1.003,3.922 -8.481,13.954 -15.321,30.096 -24.35,44.506 v 0.913 c -4.652,9.12 -10.214,18.878 -16.052,27.907 0.457,2.007 -0.912,3.557 -0.547,5.838 2.918,0.273 6.84,-0.457 9.394,-1.551 0.638,-1.095 1.368,-2.006 1.915,-3.922 0,-1.915 -0.273,-3.557 -0.273,-5.837 1.641,-3.283 2.918,-7.478 4.195,-11.673 l 0.638,-0.73 0.73,0.365 c 0.912,1.276 -0.457,2.918 0.273,4.56 l 0.913,-1.003 c 2.006,-2.918 2.645,-6.202 3.921,-10.124 5.198,-9.029 7.843,-21.341 13.042,-30.826 0.639,-0.273 0.912,-1.551 1.915,-2.28 1.003,-1.642 2.645,-2.828 3.922,-5.473 0.912,0 1.642,-0.638 2.918,-1.003 0.638,-0.273 0.638,-1.55 1.277,-2.918 0.364,-0.274 1.642,-0.912 3.01,-0.912 l 0.638,0.912 c 0.273,2.918 -1.003,4.925 -0.638,7.752 -1.003,1.368 -2.646,2.645 -3.648,5.29 l 1.277,-0.639 c 5.837,-6.84 8.482,-16.963 15.596,-24.077 1.368,-1.277 1.368,-3.192 3.283,-4.834 0.639,-3.922 3.284,-5.563 4.195,-9.484 l 1.003,-0.73 c 1.003,-2.554 1.642,-4.56 3.192,-6.475 l 1.095,-0.639 c 0.273,-1.003 0.547,-2.645 0.547,-3.831 1.095,-3.283 2.736,-6.292 3.922,-9.758 1.642,-5.563 4.925,-8.208 4.925,-12.403 0.638,-0.639 1.641,-1.915 2.553,-2.28 l 0.365,-1.915 c 0.638,-1.368 1.642,-2.007 2.918,-3.283 0,-0.912 1.003,-1.916 1.277,-3.192 3.284,-2.645 8.208,-2.006 12.586,-2.28 l 2.918,0.912 c 2.371,0.638 3.283,3.922 5.837,4.925 1.368,3.557 3.283,6.749 4.924,10.67 v 1.003 c 0.365,1.003 0.639,1.55 2.007,2.554 0.273,1.003 0,1.642 0.273,2.918 1.003,2.372 2.554,4.56 3.922,7.479 0.639,4.651 2.553,8.846 4.925,12.403 l 0.273,1.915 c 0.274,2.007 2.372,3.192 4.014,4.651 0.273,1.642 1.642,2.918 2.189,4.925 0.456,0.547 1.367,1.55 2.371,2.188 0,1.368 0.912,1.643 1.551,3.01 1.368,1.186 3.647,3.466 5.563,5.473 0,1.276 1.003,1.642 1.642,2.918 1.003,0.912 3.557,1.642 4.56,3.557 3.831,0.365 7.479,1.003 11.674,0.365 l 1.003,-1.642 1.916,-0.912 c 0.365,-1.094 0,-2.645 0.365,-3.921 0.273,-2.371 1.915,-3.284 2.554,-5.837 -0.274,-2.006 0.729,-2.645 1.276,-4.924 0.365,-0.913 1.642,-1.642 2.645,-2.919 0,-1.003 0.638,-1.641 1.003,-2.918 0.912,-1.095 1.642,-2.463 2.28,-4.377 l 1.003,-0.274 c 0.912,-0.365 0.912,-1.641 1.55,-2.918 1.277,-1.368 2.646,-2.645 5.199,-3.284 2.554,0 4.925,-0.912 7.844,-0.638 l 1.915,1.003 c 3.283,5.836 5.199,13.042 8.3,19.608 0.729,0.913 1.368,2.554 3.01,3.192 0.638,1.916 1.367,4.56 2.553,6.84 l 1.642,1.368 c 1.641,3.83 3.283,9.029 5.563,13.224 1.277,0 0.639,2.28 1.916,2.645 0.365,3.557 1.642,7.752 3.922,10.67 l 0.638,1.642 c 1.277,-1.368 0.274,-3.921 0.729,-5.837 0,-1.368 1.551,-2.006 2.828,-2.006 2.006,4.286 5.563,7.479 8.481,12.039 v 1.916 c 2.919,3.648 3.831,7.843 5.472,12.768 5.29,4.469 6.932,13.588 10.762,20.703 0.639,1.276 2.281,2.279 3.648,3.557 0.274,1.003 0.639,2.28 1.186,3.557 l 1.368,1.276 c 0.912,1.642 1.642,3.922 3.557,5.563 0.365,1.186 1.003,2.554 2.006,3.831 2.555,3.922 4.196,6.84 5.838,10.124 0.638,0.638 0.912,1.642 1.915,2.553 0.639,1.003 0,1.642 0.639,2.918 2.553,1.277 4.56,4.195 8.116,5.837 l 1.273,0.361 z"
   id="path3029"
   style="fill:#009944;fill-rule:evenodd" />
	<path
   d="m 285.598,215.281 -1.642,-1.003 1.642,1.003 z"
   id="path3031"
   style="fill:#00a0e9;fill-rule:evenodd" />
	<path
   d="m 380.265,557.012 c -1.004,-0.364 -2.646,0 -3.921,-0.364 -1.369,-0.274 -2.646,-1.277 -3.922,-2.188 -1.643,-2.007 -2.28,-4.195 -4.834,-6.477 l -0.912,-0.455 c -3.011,-1.186 -3.922,-5.381 -6.841,-7.023 -1.003,-1.641 -1.003,-3.647 -2.279,-5.836 -0.365,-6.111 0,-12.951 -0.912,-19.426 l 0.912,-1.003 c 1.642,-0.365 2.554,-1.278 4.469,-2.28 1.095,-0.912 1.368,-1.643 2.371,-2.919 1.915,-1.276 3.557,-2.918 4.833,-5.198 1.551,-1.003 2.919,-3.283 5.474,-3.922 0.911,0 1.642,0 2.917,0 0.639,-1.551 2.646,-1.276 3.283,-3.192 1.643,-0.638 3.558,0 5.473,-0.364 l 1.642,1.368 c 0.638,1.185 2.006,3.83 1.276,5.837 l 1.004,1.642 c 0.639,1.915 0,3.466 0.273,5.837 l -1.551,2.554 c -0.639,2.554 -1.642,5.197 -3.283,7.478 -1.276,9.668 0.365,19.699 -1.276,29.186 -0.274,1.914 0.273,4.195 0.273,6.384 -1.278,0.361 -2.828,-0.004 -4.469,0.361 z"
   id="path3033"
   style="fill:#e60012;fill-rule:evenodd" />
	<path
   d="m 382.271,511.32 c 0.183,-0.82 0.457,-1.276 0.548,-1.551 0.272,-1.094 0.638,-1.915 0.82,-2.645 0.092,-0.456 0.183,-0.82 0.456,-1.003 0.091,-0.183 0.091,-0.274 -0.091,-0.456 -0.365,-0.183 -1.004,-0.274 -1.733,-0.365 v 6.02 l 0,0 z m 0,37.94 v -1.003 c 0.092,0.091 0.183,0.183 0.183,0.273 0.274,0.092 0.274,0.274 0.092,0.455 -0.093,0.092 -0.184,0.184 -0.275,0.275 l 0,0 z m 0,-5.108 v -1.094 c 0.64,0.182 1.003,0.272 1.277,0.364 0,0.092 0.091,0.183 0.091,0.274 -0.091,0.182 -0.091,0.272 -0.091,0.455 -0.092,0.183 -0.183,0.457 -0.274,0.82 0,0.092 -0.183,0.092 -0.363,0.092 -0.092,0.092 -0.183,0 -0.183,-0.092 -0.183,-0.272 -0.275,-0.544 -0.457,-0.819 l 0,0 z m 0,-1.641 v -1.186 l 0,0 c 0.183,0.273 0.457,0.456 0.729,0.821 0.091,0 0.091,0.091 0.091,0.091 -0.091,0.091 -0.181,0.183 -0.181,0.273 -0.183,0 -0.274,0 -0.365,0 h -0.274 l 0,10e-4 z m 0,-2.554 v -0.729 c 0.092,0.183 0.274,0.274 0.365,0.274 0,0 -0.091,0.091 -0.183,0.182 0,0.09 -0.091,0.182 -0.182,0.273 l 0,0 z m 0,-14.409 v -1.642 c 0.274,0 0.457,0 0.548,-0.092 0.272,-0.091 0.365,-0.091 0.455,0.092 0.183,0.365 0.365,0.638 0.457,0.82 0.091,0.092 0.183,0.365 0.091,0.912 0,0.273 -0.091,0.456 -0.183,0.365 -0.455,-0.182 -0.911,-0.364 -1.368,-0.455 z m -1.459,-11.491 c 0.183,0.091 0.273,0.183 0.365,0.273 0,0 0.091,-0.091 0.091,-0.273 0.364,-1.096 0.73,-2.007 1.003,-2.736 v -6.02 c -0.272,0 -0.456,-0.091 -0.639,-0.091 -0.272,0 -0.547,-0.092 -0.82,-0.092 v 1.095 c 0.183,0 0.365,0.092 0.548,0.092 0.182,0.09 0.364,0.272 0.364,0.547 0.091,0.729 -0.273,2.006 -0.912,3.921 v 3.284 l 0,0 z m 0,-11.493 c 0.273,0 0.365,-0.091 0.365,-0.273 -0.183,-0.547 -0.274,-0.912 -0.365,-1.003 v 1.276 l 0,0 z m 1.459,21.342 v 1.642 c -0.456,-0.184 -1.003,-0.274 -1.459,-0.274 v -1.459 c 0.091,0 0.183,0 0.273,0 0.456,0.091 0.821,0.091 1.186,0.091 l 0,0 z m 0,15.322 v 0.729 c -0.183,0.183 -0.456,0.547 -0.82,0.912 l -0.548,0.82 c 0,0.092 0.092,0.092 0.274,0.092 0.182,0 0.364,-0.092 0.455,-0.092 0,-0.182 0.092,-0.364 0.183,-0.455 0.092,-0.092 0.092,-0.092 0.273,-0.092 l 0.183,0.183 v 1.186 h -0.272 l -0.092,-0.183 c -0.183,0 -0.547,0.092 -1.095,0.274 v -2.554 c 0.183,0 0.273,0 0.456,0 0.183,-0.456 0.364,-0.73 0.456,-0.913 0.091,-0.182 0.274,-0.182 0.364,0 0.092,10e-4 0.092,0.093 0.183,0.093 l 0,0 z m 0,3.831 v 1.094 c -0.183,-0.183 -0.272,-0.364 -0.456,-0.547 -0.273,-0.365 -0.455,-0.547 -0.455,-0.639 0,-0.091 0.091,-0.091 0.272,0 0.182,0 0.366,0 0.639,0.092 l 0,0 z m 0,5.198 v 1.003 c -0.364,0.456 -0.547,0.912 -0.639,1.459 -0.182,0.456 -0.455,1.187 -0.82,2.189 v -4.926 c 0.638,0 1.094,0.092 1.459,0.275 l 0,0 z m -1.459,-1.642 v -1.277 c 0.091,0.092 0.183,0.092 0.273,0.092 0.274,0.183 0.365,0.456 0.274,0.639 0,0 -0.092,0 -0.092,0.091 -0.182,0.091 -0.365,0.273 -0.455,0.455 l 0,0 z m 0,-2.006 v -1.187 c 0,0.092 0,0.092 0,0.092 0.091,0.183 0.183,0.364 0.365,0.638 0.091,0.092 0.091,0.092 0.091,0.183 0.092,0.092 0.092,0.092 0,0.183 0,0.092 -0.091,0.092 -0.091,0.092 -0.092,-10e-4 -0.275,-10e-4 -0.365,-10e-4 l 0,0 z m 0,-5.381 c 0.273,-0.364 0.548,-0.729 0.82,-0.912 0,-0.091 0,-0.091 0,-0.183 -0.364,-0.272 -0.547,-0.547 -0.547,-0.547 -0.091,-0.091 -0.183,0 -0.273,0.091 0,0 0,0.092 0,0.184 v 1.367 l 0,0 z m 0,-18.97 v -0.821 c 0.091,0.092 0.183,0.183 0.273,0.183 0.274,0.183 0.274,0.365 0,0.547 -0.091,-10e-4 -0.183,0.091 -0.273,0.091 z m -4.013,-8.299 c 0.365,0 0.639,-0.092 1.003,-0.092 0.183,0 0.365,0.092 0.456,0.183 0.273,0.273 0.639,0.548 1.003,0.821 0.274,0.272 0.639,0.638 1.096,1.003 0.183,0.091 0.364,0.091 0.455,0.183 v -3.284 c -0.091,0.183 -0.091,0.365 -0.183,0.548 -0.272,0.547 -0.456,0.912 -0.638,1.003 -0.092,0.092 -0.183,0.092 -0.273,0 -0.183,-0.091 -0.365,-0.183 -0.457,-0.364 -0.183,0 -0.183,-0.183 0,-0.365 0,-0.182 0.092,-0.456 0.183,-0.912 0,-0.091 -0.183,-0.091 -0.639,-0.182 -0.547,0 -1.276,0.091 -2.006,0.182 v 1.276 l 0,0 z m 4.013,-6.841 c -0.82,0 -1.733,0 -2.735,0.183 0.182,-1.186 0.547,-2.189 1.185,-3.01 0.365,0 0.821,0.091 1.278,0.183 0.09,0 0.182,0.091 0.272,0.091 v -1.276 l 0,0 c -0.272,-0.183 -0.364,-0.365 -0.364,-0.548 -0.091,-0.09 -0.183,-0.182 -0.183,-0.182 -0.092,0 -0.183,0 -0.273,0 -0.183,0.092 -0.456,0.092 -0.73,0.092 -0.456,0.09 -1.185,0.272 -2.097,0.547 -0.092,0.091 -0.183,0.091 -0.365,0.091 v 1.642 c 0.183,0 0.365,-0.091 0.547,-0.183 0,0.274 0,0.73 -0.091,1.095 -0.091,0.547 -0.183,1.094 -0.273,1.642 -0.092,0 -0.092,0 -0.183,0 v 1.003 c 0.091,0 0.091,0 0.091,0 -0.091,1.459 0.092,2.279 0.456,2.645 0.548,0.365 1.369,0.365 2.463,0.092 0.183,0 0.364,-0.092 0.364,-0.183 0.092,-0.364 0,-0.638 -0.091,-1.003 -0.091,-0.183 -0.183,-0.183 -0.456,-0.183 -0.273,0 -0.548,0.091 -0.821,0.183 -0.273,0 -0.455,0 -0.547,-0.092 -0.273,-0.272 -0.364,-0.82 -0.273,-1.641 1.094,-0.183 2.098,-0.183 2.827,-0.092 v -1.096 l -10e-4,0 z m 0,14.319 v 0.821 c -0.272,0.183 -0.455,0.365 -0.729,0.548 -0.456,0.547 -1.186,1.003 -2.098,1.459 0,0.091 0,0.272 0,0.547 0,0.365 0,0.639 0,1.003 0.82,-0.091 1.733,-0.091 2.827,0 v 1.459 c -0.82,-0.091 -1.733,-0.091 -2.645,-0.091 v 0.091 c 0.091,2.463 0.091,4.379 -0.091,5.929 -0.092,1.004 -0.183,1.824 -0.183,2.463 0,0.364 -0.092,0.547 -0.274,0.455 -0.182,-0.091 -0.455,-0.272 -0.82,-0.364 v -4.378 c 0.091,-1.094 0.091,-2.188 0,-3.192 v -4.104 c 0.091,0 0.183,0 0.273,0 0,-0.091 0,-0.091 0.092,-0.091 0.547,-0.456 1.003,-0.822 1.276,-1.277 0.091,-0.364 0.183,-0.548 0.091,-0.729 -0.091,-0.091 -0.364,-0.183 -0.82,-0.183 -0.273,0 -0.547,0.092 -0.912,0.092 v -0.912 c 1.551,-0.458 2.827,-0.276 4.013,0.454 l 0,0 z m 0,18.423 v 1.367 c -0.091,0.183 -0.091,0.274 -0.183,0.365 l -0.272,0.456 c 0,0 0.091,0.091 0.455,0.091 0,-0.091 0,-0.091 0,-0.091 v 2.554 c -0.364,0.182 -0.729,0.273 -1.186,0.456 -0.091,0.091 -0.091,0.091 -0.183,0 -0.183,-0.092 -0.365,-0.274 -0.547,-0.456 0,0 0,-0.092 0.182,-0.183 0.274,-0.092 0.821,-0.639 1.461,-1.551 -0.092,0 -0.366,0 -0.64,0.183 -0.547,0.183 -0.821,0.273 -0.821,0.273 -0.09,0.092 -0.182,0.092 -0.182,0 0,-0.091 -0.092,-0.273 -0.273,-0.548 -0.092,0.183 -0.456,0.365 -1.186,0.548 -0.273,0 -0.548,0.092 -0.639,0.092 v -0.64 c 0.183,-0.091 0.273,-0.091 0.456,-0.182 0,0 0.364,-0.092 1.095,-0.273 h 0.182 c 0,0.092 0,0.182 0.092,0.273 -0.092,0 0,-0.092 0.092,-0.092 0.09,0 0.273,0 0.455,-0.09 0.091,-0.092 0.365,-0.457 0.639,-1.004 0.364,-0.729 0.639,-1.186 0.82,-1.277 0.092,-0.088 0.183,-0.18 0.183,-0.271 l 0,0 z m 0,5.563 v 1.187 c -0.091,-0.092 -0.091,-0.092 -0.183,-0.092 h -0.182 c -0.183,-0.456 -0.183,-0.82 0,-1.187 0,-0.091 0,-0.091 0.092,-0.091 0.09,0 0.182,0.091 0.273,0.183 l 0,0 z m 0,1.915 c -0.455,-0.091 -0.729,-0.182 -1.003,-0.273 -0.091,-0.365 -0.091,-0.82 0.183,-1.459 0,0 0,0 0,-0.091 H 379.9 c -0.364,0.364 -0.639,0.638 -0.729,0.82 l -0.273,0.183 c -0.092,0 -0.092,0.092 0,0.092 0.092,0.182 0.182,0.363 0.456,0.455 -0.092,0 -0.183,0 -0.364,0.092 -0.821,0.091 -1.551,0.182 -2.189,0.364 v 0.639 c 0.729,-0.183 1.368,-0.273 1.916,-0.365 0.09,0 0.273,0 0.273,0 0.09,0.092 0.09,0.183 0.182,0.365 0,0.183 -0.092,0.364 -0.182,0.364 0,0.183 -0.184,0.183 -0.639,0.183 -0.548,0.183 -1.095,0.273 -1.551,0.365 v 0.82 c 1.277,-0.364 2.371,-0.548 3.374,-0.456 0.092,0 0.092,-0.092 0.274,-0.273 0,-0.091 0.092,-0.364 0.364,-0.547 v -1.278 l 0,0 z m 0,2.644 v 4.926 c -0.091,0.273 -0.183,0.456 -0.272,0.729 -0.092,0.273 -0.274,0.273 -0.548,0.183 -0.092,-0.183 -0.365,-0.365 -0.821,-0.456 -1.003,-0.456 -1.732,-0.821 -2.371,-1.277 v -0.729 c 1.095,0.365 1.916,0.456 2.462,0.365 0.274,-0.092 0.457,-0.456 0.639,-0.912 0.365,-0.912 0.457,-1.551 0.092,-2.006 -0.092,-0.092 -0.273,-0.092 -0.456,-0.092 -0.82,0.092 -1.733,0.272 -2.736,0.547 v -0.729 c 1.003,-0.183 2.006,-0.365 2.919,-0.548 0.453,-10e-4 0.819,-10e-4 1.092,-10e-4 l 0,0 z m -4.013,-2.644 c 0.091,0 0.091,0 0.091,0 0.639,-0.365 1.095,-0.456 1.551,-0.456 0.091,0 0.091,-0.091 0.183,-0.091 0,-0.182 0.092,-0.547 0.365,-1.003 0.09,0 0.09,-0.091 0.272,-0.183 0,-0.091 0,-0.183 -0.183,-0.365 -0.547,-0.364 -1.185,-0.456 -1.823,-0.273 -0.091,0 -0.091,0 -0.091,0 -0.092,0.092 -0.183,0.092 -0.365,0.092 v 0.639 c 0.091,0 0.183,-0.092 0.365,-0.092 0.364,-0.183 0.547,-0.183 0.547,-0.183 0.183,0 0.273,0.092 0.365,0.183 v 0.092 c 0,0.182 0,0.272 -0.092,0.364 0,0.091 0,0.091 0,0.091 -0.091,0.092 -0.273,0.183 -0.456,0.274 -0.273,0 -0.456,0 -0.456,0 -0.091,0 -0.183,-0.092 -0.183,-0.183 0,-0.092 0,-0.092 -0.091,-0.183 v 1.277 l 10e-4,0 z m 0,-2.645 c 0.091,-0.091 0.365,-0.183 0.729,-0.183 0.729,-0.183 1.095,-0.364 1.187,-0.547 0,-0.091 0,-0.091 0,-0.274 -0.092,0 -0.184,-0.091 -0.092,-0.182 l -0.639,0.091 c -0.365,0.091 -0.547,0.183 -0.729,0.183 -0.091,0.092 -0.273,0.183 -0.456,0.183 v 0.729 l 0,0 z m 0,-2.644 c 0.273,-0.092 0.456,-0.183 0.82,-0.274 1.004,-0.272 1.642,-0.364 1.733,-0.364 0.183,0.092 0.183,0.092 0.183,-0.092 0,-0.091 0,-0.364 -0.092,-0.638 -0.091,-0.183 -0.183,-0.183 -0.183,-0.183 -0.183,0 -0.272,0.091 -0.456,0.091 -0.638,0.274 -1.367,0.456 -2.006,0.639 v 0.821 l 10e-4,0 z m 0,-1.642 c 0.183,0 0.365,0.091 0.547,0.091 0.183,0.091 0.456,0.183 0.73,0.183 0.182,0 0.273,-0.092 0.455,-0.273 0.092,-0.092 0.092,-0.183 0,-0.274 -0.091,-0.182 -0.182,-0.272 -0.273,-0.456 -0.273,-0.182 -0.456,-0.547 -0.639,-1.003 -0.091,-0.092 -0.182,-0.182 -0.182,-0.272 0,-0.183 -0.092,-0.274 -0.183,-0.274 -0.091,0 -0.273,0 -0.365,0 0,0 0,0 -0.091,0.092 v 2.186 z m -0.455,-26.357 c 0.182,0 0.272,-0.091 0.455,-0.091 v -1.277 c -0.183,0 -0.273,0 -0.455,0.091 v 1.277 l 0,0 z m 0.455,-10.762 c -0.183,0.091 -0.273,0.183 -0.455,0.183 v 1.641 c 0.182,-0.09 0.272,-0.09 0.455,-0.182 v -1.642 l 0,0 z m 0,4.195 c -0.183,0.091 -0.273,0.091 -0.455,0.091 v 1.003 c 0.182,0 0.272,-0.091 0.455,-0.091 v -1.003 l 0,0 z m 0,13.498 v 0.912 c -0.183,0.091 -0.273,0.091 -0.455,0.183 v -1.004 c 0.181,0 0.272,-0.091 0.455,-0.091 l 0,0 z m 0,3.101 v 4.104 c 0,-0.273 0,-0.547 0,-0.821 -0.183,0 -0.365,0.092 -0.455,0.092 v -1.458 c 0.09,0 0.182,0 0.272,0 -0.091,-0.457 -0.183,-0.821 -0.272,-1.004 v -1.003 c 0.181,-10e-4 0.272,-10e-4 0.455,0.09 l 0,0 z m 0,7.296 v 4.378 c -0.091,-0.091 -0.273,-0.183 -0.455,-0.183 v -1.459 c 0,0 0.09,0 0.09,-0.092 0,-0.091 0.092,-0.182 0.183,-0.364 0.091,-0.82 0.182,-1.551 0.182,-2.28 l 0,0 z m 0,6.841 v 2.188 h -0.091 c -0.274,-0.092 -0.364,-0.183 -0.364,-0.274 v -1.094 c 0,-0.274 0.182,-0.457 0.364,-0.638 0,-0.091 0.091,-0.182 0.091,-0.182 l 0,0 z m 0,3.009 v 0.821 c -0.183,0.091 -0.365,0.183 -0.455,0.273 v -0.912 c 0,0 0.09,0 0.09,-0.092 0.182,0 0.274,-0.09 0.365,-0.09 l 0,0 z m 0,1.549 v 0.64 c 0,0.091 0,0.091 0,0.091 -0.183,0.182 -0.183,0.182 -0.183,0.091 -0.091,-0.091 -0.183,-0.273 -0.183,-0.364 0,-0.183 -0.09,-0.274 -0.09,-0.365 0,-0.092 0.09,-0.092 0.182,-0.092 0.091,-10e-4 0.183,-10e-4 0.274,-10e-4 l 0,0 z m 0,1.187 v 0.729 l 0,0 c -0.091,0.091 -0.183,0.091 -0.183,0.091 -0.183,-0.273 -0.272,-0.547 -0.183,-0.729 0,0 0.092,0 0.183,-0.092 0.092,0.001 0.183,0.001 0.183,0.001 l 0,0 z m 0,1.095 v 0.639 l 0,0 c -0.091,0.091 -0.091,0.182 0,0.364 v 1.276 c 0,0 0,0 0,-0.091 -0.183,-0.183 -0.365,-0.365 -0.455,-0.548 v -1.55 c 0.09,0 0.272,0 0.455,-0.09 l 0,0 z m 0,2.462 v 0.639 c -0.183,0.092 -0.273,0.092 -0.455,0.183 v -0.729 c 0.09,-0.002 0.272,-0.093 0.455,-0.093 l 0,0 z m 0,1.55 v 0.82 c -0.091,0 -0.183,0.091 -0.365,0.091 l -0.09,0.092 v -0.82 c 0.09,-0.092 0.272,-0.092 0.455,-0.183 l 0,0 z m 0,1.459 v 0.729 c -0.183,0.092 -0.273,0.092 -0.455,0.183 v -0.729 l 0.455,-0.183 0,0 0,0 z m 0,2.827 v 0.729 c -0.183,-0.091 -0.365,-0.273 -0.455,-0.364 v -0.548 c 0,0.092 0,0.092 0,0.092 0.181,0.001 0.364,0.091 0.455,0.091 l 0,0 z m -0.455,-8.298 c 0,-0.092 0,-0.092 0,-0.092 0,-0.091 0,-0.183 0,-0.183 v -0.091 0.366 z m -0.639,-30.918 c 0.182,0 0.364,-0.091 0.639,-0.091 v -1.277 c -0.184,0 -0.457,0.092 -0.639,0.092 v 1.276 l 0,0 z m 0.639,-10.67 c -0.184,0.091 -0.457,0.182 -0.639,0.182 v 1.551 c 0.182,-0.092 0.455,-0.092 0.639,-0.092 v -1.641 l 0,0 z m 0,4.103 c -0.184,0.092 -0.457,0.092 -0.639,0.183 v 1.003 c 0.182,-0.091 0.455,-0.183 0.639,-0.183 v -1.003 l 0,0 z m 0,13.498 v 1.004 c -0.184,0 -0.457,0.09 -0.639,0.182 v -0.912 c 0.182,-0.091 0.455,-0.183 0.639,-0.274 l 0,0 z m 0,2.919 v 1.003 c -0.092,-0.183 -0.184,-0.365 -0.274,-0.457 -0.091,-0.182 -0.183,-0.272 -0.183,-0.364 0,-0.091 0.182,-0.182 0.457,-0.182 l 0,0 0,0 z m 0,2.007 v 1.458 c -0.184,0 -0.365,0 -0.457,0.092 -0.091,0 -0.091,0 -0.182,0 v -1.459 c 0.182,0 0.455,0 0.639,-0.091 l 0,0 z m 0,8.116 v 1.459 c -0.092,-0.092 -0.092,-0.092 -0.184,-0.092 -0.182,-0.091 -0.273,-0.091 -0.455,-0.182 v -1.186 c 0.274,0.093 0.455,0.093 0.639,10e-4 l 0,0 z m 0,4.925 v 1.094 l 0,0 c -0.092,-0.456 -0.092,-0.82 0,-1.094 l 0,0 z m 0,2.371 v 0.912 c -0.092,0 -0.092,0.092 -0.092,0.092 -0.092,0.09 -0.183,0.09 -0.183,0 -0.091,-0.092 -0.273,-0.183 -0.273,-0.457 0,0 0,0 -0.091,0 v -0.364 c 0.182,0 0.364,-0.091 0.639,-0.183 l 0,0 z m 0,3.283 v 0.365 c -0.092,0 -0.092,0.091 -0.092,0.091 -0.183,0 -0.365,0.091 -0.547,0.091 v -1.185 l 0.639,0.638 0,0 z m 0,0.456 c -0.184,0.091 -0.365,0.091 -0.457,0.091 -0.091,0 -0.091,0 -0.182,0 v 0.548 c 0.182,0.273 0.364,0.547 0.639,0.911 v -1.55 l 0,0 z m 0,2.463 v 0.729 c -0.184,0.091 -0.365,0.091 -0.639,0.182 v -0.729 c 0.091,0 0.182,0 0.273,0 0.091,-0.091 0.182,-0.091 0.366,-0.182 l 0,0 z m 0,1.642 v 0.82 c -0.274,0.183 -0.457,0.365 -0.457,0.456 -0.091,0.183 -0.091,0.183 0.092,0.274 l 0.365,-0.092 v 0.729 c -0.092,0 -0.184,0.091 -0.274,0.091 -0.091,0.092 -0.183,0.183 -0.364,0.273 v -2.463 c 0.181,0.002 0.363,-0.088 0.638,-0.088 l 0,0 z m 0,3.921 v 0.548 c -0.184,-0.183 -0.365,-0.365 -0.457,-0.548 -0.091,-0.091 -0.091,-0.091 -0.182,-0.091 v -0.273 c 0.091,0 0.182,0.091 0.273,0.182 0.091,0.091 0.182,0.091 0.366,0.182 l 0,0 z m -0.639,-6.202 V 544.7 c 0.091,0 0.091,0.092 0.091,0.092 0,0 0,0.091 0,0.182 0,-0.001 0,-0.001 -0.091,-0.001 l 0,0 z m 0,-4.013 v -0.273 c 0.091,0 0.182,0.091 0.273,0.091 10e-4,0.091 -0.091,0.182 -0.273,0.182 z m -0.183,-35.203 c 0,-0.365 0,-0.729 0.091,-1.095 0,-0.273 -0.091,-0.456 -0.273,-0.456 v 2.646 c 0.091,-0.092 0.273,-0.092 0.365,-0.092 v -1.003 c -0.092,0 -0.183,0 -0.274,0.091 l 0.091,-0.091 0,0 z m -0.182,6.475 c 0.091,0 0.273,-0.092 0.365,-0.092 v -1.276 c -0.092,0 -0.274,0.091 -0.365,0.091 v 1.277 l 0,0 z m 0.365,-10.58 c -0.092,0.092 -0.274,0.092 -0.365,0.092 v 1.459 h 0.091 c 0.092,0 0.183,0 0.274,0 v -1.551 l 0,0 z m 0,17.694 v 0.912 c -0.092,0 -0.274,0.092 -0.365,0.183 v -1.004 c 0.091,0 0.183,-0.091 0.273,-0.091 0.092,0 0.092,0 0.092,0 l 0,0 z m 0,4.743 v 1.459 c -0.092,0.091 -0.183,0.091 -0.365,0.091 v -1.459 c 0.091,0 0.273,0 0.365,-0.091 l 0,0 z m 0,8.025 v 1.186 c -0.092,0 -0.274,-0.091 -0.365,-0.183 v -1.095 c 0.091,0 0.091,0 0.183,0 0.09,0.092 0.09,0.092 0.182,0.092 l 0,0 z m 0,7.479 v 0.364 c 0,0 -0.092,-0.091 -0.092,-0.183 -0.091,-0.091 -0.091,-0.091 0,-0.091 0.092,10e-4 0.092,-0.09 0.092,-0.09 l 0,0 z m 0,1.094 v 0.273 l 0,0 c -0.092,0.092 -0.183,0.183 -0.365,0.365 v -1.094 l 0.091,0.091 c 0.091,0.182 0.182,0.274 0.274,0.365 l 0,0 z m 0,1.369 v 1.185 c -0.092,0 -0.092,0 -0.183,0 -0.092,0 -0.092,0 -0.183,0 v -1.642 l 0.366,0.457 0,0 z m 0,1.184 c 0,0 -0.092,0.091 -0.092,0.183 0,0.092 0.092,0.183 0.092,0.365 v -0.548 l 0,0 z m 0,1.459 v 0.273 c -0.092,0.092 -0.183,0.092 -0.274,0 h -0.091 v -0.82 c 0.091,0.092 0.183,0.274 0.273,0.365 0.092,0.092 0.092,0.092 0.092,0.182 l 0,0 z m 0,1.095 v 0.729 c -0.092,0.092 -0.274,0.092 -0.365,0.183 v -0.82 c 0.182,0 0.273,0 0.365,-0.092 l 0,0 z m 0,1.55 v 2.463 c -0.092,0 -0.274,0.092 -0.365,0.183 v -2.462 c 0.091,-0.092 0.273,-0.092 0.365,-0.184 l 0,0 z m 0,3.467 v 0.273 c -0.092,-0.183 -0.183,-0.273 -0.092,-0.365 0.092,0 0.092,0 0.092,0.092 l 0,0 z m -0.365,-11.675 v -0.182 c 0.091,0.091 0.091,0.091 0,0.182 z m 0,-34.93 0,0 c -0.183,-0.091 -0.547,-0.091 -1.003,-0.091 v 1.276 c 0.091,0.274 0.091,0.456 0.091,0.73 h -0.091 v 1.003 l 0,0 c 0,0.182 0,0.364 0,0.548 v 1.915 c 0.182,-0.092 0.365,-0.183 0.456,-0.365 0,0 0.09,-0.092 0.272,-0.183 0.183,-0.183 0.274,-0.364 0.183,-0.547 -0.091,-0.456 -0.183,-0.82 -0.091,-1.187 0.091,-0.182 0.183,-0.364 0.183,-0.455 l 0,0 v -2.644 l 0,0 z m -1.003,8.209 c 0.273,-0.092 0.638,-0.092 1.003,-0.183 v -1.277 c -0.365,0.092 -0.638,0.183 -1.003,0.273 v 1.187 l 0,0 z m 1.003,-10.671 c -0.365,0.091 -0.729,0.183 -1.003,0.274 v 1.275 c 0.365,0 0.638,-0.091 1.003,-0.091 v -1.458 l 0,0 z m 0,17.693 v 1.004 c -0.365,0.091 -0.638,0.273 -1.003,0.548 v -1.278 c 0.273,-0.092 0.638,-0.183 1.003,-0.274 l 0,0 z m 0,4.743 v 1.459 c -0.183,0.092 -0.365,0.092 -0.547,0.092 -0.183,0 -0.274,0 -0.456,0 v -1.277 c 0.365,-0.093 0.638,-0.183 1.003,-0.274 l 0,0 z m 0,7.842 v 1.095 c -0.365,-0.091 -0.729,-0.273 -1.003,-0.456 v -0.82 c 0.273,0.091 0.638,0.181 1.003,0.181 l 0,0 z m 0,6.932 v 0.182 c 0,0 0,0 -0.092,0 -0.183,0.092 -0.546,0.548 -0.911,1.096 v -1.46 c 0.091,-0.091 0.091,-0.183 0.182,-0.273 0.092,-0.091 0.092,-0.183 0.274,-0.091 0,-10e-4 0.182,0.181 0.547,0.546 l 0,0 0,0 z m 0,1.277 c -0.092,-0.092 -0.183,0 -0.274,0.183 -0.091,0.09 -0.272,0.272 -0.363,0.455 -0.184,0 -0.274,0.091 -0.365,0.091 v 1.643 c 0.091,-0.092 0.273,-0.274 0.456,-0.547 0.272,-0.366 0.364,-0.548 0.547,-0.73 v -1.095 l -0.001,0 z m 0,1.368 v 1.642 c -0.365,0.091 -0.729,0.183 -1.003,0.274 v -0.73 c 0.091,0.092 0.091,0 0.182,0 0.184,0 0.364,-0.091 0.639,-0.182 -0.183,-0.274 -0.183,-0.547 -0.092,-0.913 -10e-4,-0.091 0.091,-0.091 0.274,-0.091 l 0,0 0,0 z m 0,2.553 v 0.82 c -0.092,0 -0.183,0 -0.183,0 -0.092,0.092 -0.183,0.092 -0.183,0 -0.182,-0.363 -0.182,-0.729 0,-1.003 -0.092,0 0,-0.091 0.091,-0.182 0,0.092 0.183,0.183 0.275,0.365 l 0,0 z m 0,1.734 v 0.82 c -0.092,0 -0.183,0.092 -0.274,0.092 -0.183,0.091 -0.363,0.091 -0.363,-0.092 l -0.365,-0.547 c 0,-0.091 0.091,-0.091 0.273,-0.091 0.272,-0.091 0.454,-0.091 0.729,-0.182 l 0,0 z m 0,1.641 v 2.462 c -0.365,0.183 -0.638,0.456 -1.003,0.639 v -1.276 c 0.273,-0.547 0.365,-0.912 0.091,-1.277 -0.091,-0.183 0,-0.273 0.365,-0.364 0.182,-0.092 0.364,-0.184 0.547,-0.184 l 0,0 z m -1.003,-2.006 0,0 c 0.091,0.092 0.182,0.092 0.273,0.092 0,0 0.092,-0.092 0.183,-0.183 v -0.092 c -0.091,0 -0.091,-0.091 -0.091,-0.273 -0.184,-0.092 -0.274,-0.365 -0.365,-0.638 0,-0.092 0,-0.092 0,-0.183 v 1.277 z m 0,-41.406 h -0.092 c -0.273,0 -0.273,0.183 -0.183,0.547 0.092,0.184 0.183,0.456 0.274,0.729 v -1.276 l 10e-4,0 z m 0,2.007 c -0.456,0.091 -0.913,0.183 -1.187,0.364 -0.455,0.091 -0.911,0.273 -1.368,0.365 v 4.65 c 0.183,0.274 0.365,0.548 0.548,0.821 0,0.092 0.092,0.183 0.273,0.274 0,0.09 0.092,0.273 0.183,0.273 0.183,0.182 0.273,0.182 0.364,0 0.092,-0.092 0.456,-0.273 1.187,-0.456 v -1.187 c -0.274,0.092 -0.548,0.184 -0.821,0.273 -0.182,0.092 -0.365,0 -0.365,-0.364 -0.455,-0.456 -0.82,-1.277 -1.094,-2.28 -0.183,-0.182 -0.183,-0.364 -0.183,-0.547 0.183,-0.273 1.003,-0.638 2.463,-1.186 v -1 l 0,0 z m 0,-4.103 v 1.275 c -0.456,0.092 -0.913,0.274 -1.277,0.457 -0.547,0.364 -0.82,0.455 -0.912,0.182 -0.091,-0.182 -0.183,-0.455 -0.183,-0.729 0,-0.182 -0.091,-0.456 -0.091,-0.639 -0.092,-0.091 -0.092,-0.091 -0.092,-0.091 V 502.2 c 0.092,-0.091 0.183,-0.091 0.365,-0.091 0.092,0 0.183,0.091 0.456,0.182 0.457,0 1.003,-0.091 1.734,-0.272 l 0,0 z m 0,5.654 v 1.915 c -0.456,0.272 -0.821,0.364 -1.277,0.364 -0.364,0.092 -0.456,0 -0.183,-0.273 0.729,-0.73 1.186,-1.276 1.368,-1.551 0,-0.183 0.092,-0.274 0.092,-0.455 l 0,0 z m 0,12.037 v 1.278 c -0.365,0.181 -0.639,0.455 -1.003,0.729 -0.184,0.274 -0.365,0.274 -0.548,0 -0.547,-0.548 -0.821,-1.003 -0.912,-1.276 -0.092,-0.183 0,-0.364 0.273,-0.364 0.183,0.089 0.913,-0.093 2.19,-0.367 l 0,0 z m 0,4.743 v 1.277 c -0.092,0.091 -0.183,0.091 -0.274,0.091 -0.912,0.183 -1.641,0.273 -2.28,0.456 v -1.095 c 0.274,-0.091 0.548,-0.182 0.821,-0.273 0.546,-0.182 1.094,-0.365 1.733,-0.456 l 0,0 z m 0,7.388 v 0.82 c -0.73,-0.273 -1.187,-0.639 -1.642,-1.003 -0.183,-0.183 -0.273,-0.273 -0.183,-0.456 0.091,0 0.183,0 0.547,0.183 0.365,0.181 0.822,0.364 1.278,0.456 l 0,0 z m 0,6.93 v 1.46 c 0,0.091 -0.092,0.183 -0.092,0.272 l -0.273,0.456 c 0,0.092 0.091,0.092 0.365,0 l 0,0 v 1.643 c 0,0.091 0,0.091 0,0.091 0,0.091 0,0.091 0,0.091 v 0.73 c -0.274,0.091 -0.456,0.183 -0.548,0.273 -0.455,1.003 -0.639,1.732 -0.547,2.28 0,0.091 0,0.091 -0.092,0.091 -0.091,0 -0.364,-0.091 -0.638,-0.365 0.091,1.46 -0.183,2.828 -0.73,4.287 v -2.827 c 0.183,-0.639 0.274,-1.46 0.274,-2.372 0,-0.455 0,-0.729 0.091,-0.729 0.092,0 0.183,0.183 0.274,0.639 0,0.182 0,0.365 0.091,0.547 0.456,-0.82 0.821,-1.276 0.911,-1.368 -0.364,0.092 -0.547,0.183 -0.638,0.183 0,0.092 -0.091,0.092 -0.091,0 -0.183,-0.273 -0.365,-0.455 -0.548,-0.638 -0.091,0 0,0 0.183,-0.184 0.365,-0.091 0.912,-0.547 1.642,-1.367 -0.183,0 -0.365,0 -0.638,0.092 -0.274,0.091 -0.548,0.182 -0.639,0.272 -0.092,0.092 -0.183,0.092 -0.183,0 -0.091,-0.182 -0.183,-0.364 -0.365,-0.639 -0.091,-0.091 0,-0.182 0.183,-0.182 0.273,-0.091 0.639,-0.456 1.094,-1.186 0.457,-0.729 0.73,-1.187 0.913,-1.459 10e-4,0.001 10e-4,0.001 10e-4,-0.091 l 0,0 z m 0,5.473 c 0,0 0,0 0,-0.092 l 0,0 c -0.183,0 -0.274,0 -0.365,0 -0.091,0.365 -0.183,0.729 0,1.186 0,0.092 0.091,0.183 0.365,0.183 v -1.277 l 0,0 z m 0,5.108 c -0.183,0.182 -0.365,0.455 -0.639,0.729 -0.183,0.091 -0.183,0.272 -0.183,0.364 0,0.092 0,0.273 0,0.365 0.091,0.091 0.183,0.091 0.273,0.182 0.183,-0.182 0.365,-0.273 0.548,-0.364 v -1.276 l 10e-4,0 z m -2.555,-8.392 c 0.183,0.092 0.457,0.092 0.73,0.092 0.183,0 0.273,-0.092 0.456,-0.274 0,-0.091 0,-0.182 0,-0.273 -0.092,-0.272 -0.273,-0.364 -0.365,-0.547 -0.273,-0.273 -0.456,-0.729 -0.639,-1.276 0,-0.183 -0.091,-0.365 -0.183,-0.456 v 2.734 z m 0,-34.108 c -0.547,0.091 -1.003,0.183 -1.459,0.183 -0.182,0.183 -0.273,0.272 -0.273,0.364 0.456,1.367 1.003,2.736 1.732,4.104 v -4.651 l 0,0 z m 0,-4.652 c -0.091,0 -0.091,0.091 0,0.273 V 502.2 l 0,0 z m 0,22.983 v 1.095 c -1.185,0.273 -1.823,0.547 -1.915,0.729 -0.273,0.183 -0.365,0.183 -0.365,0.091 -0.273,-0.273 -0.363,-0.547 -0.455,-0.729 -0.091,-0.364 0,-0.547 0.092,-0.547 1.093,-0.274 2.006,-0.458 2.643,-0.639 l 0,0 z m 0,13.042 v 2.735 c 0,0 0,0 0,-0.091 -0.272,0 -0.455,0 -0.729,-0.092 -0.182,-0.091 -0.364,-0.182 -0.364,-0.273 -0.183,-1.002 -0.091,-1.732 0.364,-2.279 0,-0.092 0.092,-0.182 0.183,-0.182 0.092,0 0.092,0 0.274,0 0.091,0 0.181,0.09 0.272,0.182 l 0,0 z m 0,9.029 v 2.827 c 0,0.091 -0.091,0.272 -0.182,0.456 -0.183,0.547 -0.273,0.82 -0.365,0.911 0,0.183 -0.091,0.183 -0.183,0.183 -0.091,-0.183 -0.364,-0.273 -0.638,-0.456 -1.551,-2.006 -1.733,-4.833 -0.548,-8.572 0.092,-0.274 0.274,-0.365 0.456,-0.183 0.365,0.273 0.548,0.456 0.729,0.547 0.183,0.183 0.365,0.364 0.365,0.364 -0.091,0.274 -0.273,0.457 -0.456,0.639 -0.639,0.548 -1.095,1.368 -1.186,2.463 -0.183,1.095 -0.274,1.915 -0.091,2.553 0.091,0.457 0.182,0.64 0.273,0.64 0.364,0 0.639,-0.092 0.912,-0.548 0.459,-0.456 0.733,-1.096 0.914,-1.824 z"
   id="path3035"
   style="fill:#ffffff;fill-rule:evenodd" />
	<path
   d="m 469.459,524.636 c 1.642,0.456 3.102,1.095 4.378,2.371 0.729,0.273 0.273,1.915 1.642,2.554 3.557,-0.912 7.479,-2.28 11.674,-0.365 0.365,2.646 2.279,4.286 1.915,6.932 -0.547,0.912 -1.915,1.186 -3.557,1.916 -2.919,0.911 -7.752,2.279 -10.032,5.106 h -0.912 l -1.095,0.729 -1.003,1.915 -1.55,2.007 c -0.365,0.273 -0.913,0.547 -1.46,0.912 v -24.077 l 0,0 z m 0,-31.648 v -12.403 c 7.297,-4.469 17.056,-8.116 26.084,-6.475 l 2.735,1.276 1.916,0.639 c 0.638,0.639 0.912,1.642 1.915,2.553 0.364,1.004 0.639,2.646 0.639,3.923 l -1.277,1.642 c -4.56,1.276 -8.755,0.273 -13.68,2.553 l -0.639,0.73 c -1.277,0.547 -3.557,0.547 -4.925,1.914 -0.273,0.913 -1.551,1.278 -2.554,2.281 -1.915,0 -4.56,0.912 -6.748,0 -1.46,0 -2.189,0.729 -3.466,1.367 l 0,0 z m 0,-22.07 v -11.491 c 0.183,-0.183 0.365,-0.456 0.456,-0.639 0.639,-1.642 1.004,-1.915 1.916,-2.918 l 2.006,-1.915 v -1.004 c -1.459,-0.183 -3.01,-0.547 -4.378,-0.639 v -7.569 l 0.456,0.092 c 3.922,-2.28 8.117,-5.837 13.681,-3.923 2.279,0.365 3.557,1.643 5.836,2.281 0.639,0.638 1.642,1.003 2.554,2.006 0.73,1.915 1.004,3.557 0.73,5.837 -7.205,6.475 -12.768,14.958 -23.074,19.791 -0.091,0 -0.091,0.091 -0.183,0.091 l 0,0 z m 0,-36.207 v -30.096 c 0.365,-0.092 0.73,-0.274 1.095,-0.365 1.003,0 1.642,0 2.918,0 l 1.368,1.368 v 1.915 c 0.274,1.916 1.642,3.192 2.28,5.837 1.642,1.277 1.915,3.557 3.921,5.107 -0.364,1.094 0,1.642 -0.364,3.009 -1.915,4.195 -6.11,6.111 -10.123,8.756 -0.456,1.46 -0.822,3.01 -1.095,4.469 z m -11.855,101.69 c 0.09,-0.092 0.182,-0.183 0.273,-0.274 1.367,0 1.003,-1.368 2.646,-1.368 l 1.003,-1.915 c -0.73,-0.638 -1.369,-1.368 -2.281,-2.006 -0.273,-1.186 -1.003,-2.099 -1.641,-3.192 v -7.114 c 0.09,-0.638 0.182,-1.368 0,-2.006 l 0,0 v -2.189 c 2.279,-0.729 4.833,-1.276 7.478,0 l 0.639,0.547 c 1.277,2.007 -1.642,4.561 -0.364,6.841 1.368,0.274 2.735,0.548 4.104,0.912 v 24.077 c -1.276,0.729 -2.827,1.368 -4.378,1.368 -2.827,0.547 -4.378,2.279 -7.478,3.374 v -17.055 l -0.001,0 z m 11.855,-131.786 v 30.096 c -0.273,1.642 -0.456,3.374 -0.456,5.199 0,1.367 -2.006,3.009 -1.003,4.65 l 1.459,0.183 v 7.569 c -0.729,-0.09 -1.459,-0.09 -2.098,0 l -1.003,1.643 c 0,1.915 0,3.191 -0.639,4.833 l 1.004,1.915 c 1.186,-0.182 2.097,-0.638 2.735,-1.276 v 11.491 c -0.365,0.456 -1.276,1.276 -1.823,1.824 -1.916,0.273 -2.555,1.641 -4.925,2.28 l -0.913,0.638 c -0.638,0.639 -1.275,1.276 -1.642,2.646 v 1.003 c -0.82,0 -1.732,0 -2.553,0 V 450.58 c 0.547,-0.273 1.003,-0.547 1.641,-0.547 1.278,-5.473 1.278,-11.035 2.919,-16.234 l 0.273,-1.642 c -0.911,-0.639 -2.28,0 -2.554,0.729 -0.912,1.551 -1.642,3.192 -2.279,4.834 v -5.106 c 0.09,-0.183 0.182,-0.274 0.273,-0.457 0,-0.639 0,-1.55 0.639,-2.554 0.364,-1.002 2.645,0 3.282,-1.642 v -2.006 c 0.913,-0.274 1.642,-0.547 2.28,-1.915 -0.912,-3.557 0.274,-6.749 -0.912,-10.671 v -1.003 l 0.273,-0.912 c 0.639,-1.642 2.555,-2.645 3.284,-5.29 0.731,-0.455 1.462,-1.002 2.738,-1.549 l 0,0 z m 0,75.97 v 12.403 c -0.182,0.092 -0.273,0.183 -0.456,0.273 l -2.006,1.187 c -2.645,2.007 -6.202,3.283 -9.12,6.292 -0.092,0 -0.184,0 -0.273,0 v -14.5 c 1.55,-0.821 3.1,-1.551 4.56,-2.463 1.003,0 1.642,0 2.918,-0.273 1.367,-1.003 2.827,-2.006 4.377,-2.919 z m -12.494,73.053 c -1.277,0 -1.916,-1.368 -3.558,-1.642 -0.455,-0.639 -0.911,-1.277 -1.367,-2.007 v -7.934 c 1.642,-1.916 3.466,-3.831 5.563,-5.654 v 17.054 c -0.273,0.091 -0.456,0.091 -0.638,0.183 l 0,0 z m 0.639,-25.992 c -0.456,-0.639 -0.73,-1.368 -1.004,-2.281 -0.456,-1.458 0.548,-3.1 1.004,-4.833 v 7.114 l 0,0 z m 0,-9.121 -0.639,-0.273 c -1.916,0.273 -2.645,1.55 -4.925,1.276 l 0,0 v -0.911 l 1.367,-1.096 c 1.368,-0.182 2.736,-0.729 4.196,-1.186 v 2.19 l 10e-4,0 z m 0,-85.911 v 5.106 c -2.007,4.834 -3.466,9.941 -4.926,15.23 l 0.729,1.004 0.274,-0.365 c 0.639,-1.55 2.006,-1.277 2.554,-2.554 0.547,-0.183 1.003,-0.274 1.368,-0.456 v 28.729 c -1.824,0 -3.648,-0.091 -5.563,-0.183 v -8.116 c 0.912,-0.365 2.006,-0.274 2.006,-1.824 0,-1.277 0,-2.918 0,-3.922 l -1.094,-1.916 c -0.274,-2.006 0.729,-3.921 0.455,-5.471 -0.638,0.364 -1.003,0.82 -1.367,1.275 v -11.673 c 0.547,-1.095 1.186,-2.28 1.642,-3.922 0.912,-4.195 2.279,-5.837 3.283,-8.481 0,-0.728 0.182,-1.732 0.639,-2.461 l 0,0 z m 0,53.626 v 14.5 c -1.824,0.183 -3.466,1.824 -5.563,2.007 v -13.589 c 1.731,-1.094 3.647,-2.006 5.563,-2.918 z m -5.564,63.749 c -0.912,-1.459 -1.824,-3.191 -2.28,-5.198 0.729,-0.912 1.551,-1.824 2.28,-2.735 v 7.933 l 0,0 z m 0,-30.461 -0.273,-0.639 0.273,-0.272 v 0.911 l 0,0 z m 0,-72.049 v 11.673 c -0.639,1.096 -0.821,2.372 -1.276,3.558 -0.639,3.284 -0.639,5.837 -0.639,8.755 l 0.911,0.639 c 0.274,-0.639 0.639,-0.912 1.004,-1.094 v 8.116 c -1.551,-0.091 -3.192,-0.273 -4.834,-0.548 -0.548,0.822 -1.276,1.551 -2.097,2.281 v -69.04 c 1.185,0.729 2.279,1.642 3.373,2.462 0.274,1.642 1.277,2.006 1.916,3.922 -1.277,6.84 -2.827,13.314 -1.916,20.521 -0.363,6.475 -1.642,13.953 -1.276,20.428 h 0.913 c 1.641,-2.645 2.279,-6.475 3.282,-9.759 0.183,-0.728 0.366,-1.366 0.639,-1.914 l 0,0 z m 0,41.679 v 13.589 c -0.365,0 -0.821,0 -1.276,-0.091 -0.365,1.276 -1.278,2.279 -2.281,3.921 0.274,0.64 0.274,1.916 1.277,2.554 0,0.913 0,2.281 0,3.557 -1.186,1.277 -2.919,1.46 -4.65,1.369 v -19.244 c 0.363,-0.091 0.729,-0.364 1.094,-0.639 1.367,-2.097 3.465,-3.648 5.836,-5.016 l 0,0 z m -6.931,1.368 c 0.272,-0.091 0.547,-0.091 0.82,-0.273 1.276,-1.915 0.911,-5.107 0.911,-7.479 l -0.638,-0.638 c -0.456,0.092 -0.821,0.274 -1.094,0.456 v 7.934 z m 0,-78.706 v 69.04 c -1.095,0.911 -2.281,1.824 -3.467,2.918 -1.276,0.365 -1.276,-1.642 -3.191,-1.642 -1.369,0 -1.643,1.095 -2.919,1.642 l -0.364,1.003 c 0.639,0.365 0.639,1.915 1.914,2.646 v 1.914 c -1.275,0.913 -1.914,1.642 -4.195,2.281 -2.006,0.273 -1.641,-1.643 -3.647,-2.007 -0.548,-0.547 -1.186,-1.276 -1.915,-2.188 l -0.912,-0.365 c -1.003,0 -2.28,0.365 -3.01,0.912 -0.912,1.367 -2.554,3.283 -4.469,4.561 -3.648,5.836 -4.56,13.041 -5.837,20.52 l 1.915,0.274 c 4.926,-2.28 6.749,-6.75 12.678,-8.117 0.364,-0.274 1.002,-1.916 1.55,-2.554 2.736,-1.642 5.29,-3.557 8.847,-4.925 0.639,-0.274 1.277,-0.912 2.28,-1.915 1.094,-1.095 3.01,-0.456 4.743,-1.004 v 19.244 c -1.916,-0.092 -3.922,-0.548 -5.746,-0.365 -2.555,-0.364 -3.831,-2.006 -5.837,-3.191 l -0.64,1.186 c -0.911,0.729 -2.279,1.367 -3.921,2.006 -2.554,2.189 -6.476,4.195 -9.394,6.84 l -0.365,0.912 c -0.911,1.004 -2.279,1.915 -3.922,3.283 h -2.188 c -1.095,-0.638 -0.364,-2.279 -2.28,-3.01 -1.003,0 -2.644,1.095 -3.921,1.095 -1.643,-2.28 -2.918,-5.563 -4.561,-8.117 -0.639,-4.925 -1.915,-10.123 0,-14.683 1.915,-4.195 4.561,-7.752 7.113,-11.674 4.195,-2.554 7.205,-6.476 12.313,-8.756 l 1.004,-1.915 c -0.274,-1.642 -1.277,-3.01 -1.277,-4.925 l -0.639,-0.639 c -0.639,-3.922 0,-8.391 -1.276,-12.677 1.004,-11.036 0,-22.709 1.642,-34.018 0.547,-0.64 1.276,-1.368 2.554,-1.643 h 1.004 l 1.002,1.643 c 0,7.478 2.554,15.503 0.639,23.347 l 0.912,1.916 c -1.276,6.201 -1.551,13.315 -0.912,20.429 -1.368,2.645 0,4.925 0.912,7.843 l 1.915,0.365 c 1.095,0 0.365,-2.007 1.642,-2.372 2.646,0 4.926,-0.272 7.844,-1.55 -1.276,-11.035 1.004,-22.436 -0.273,-34.109 1.915,-6.201 0.912,-13.315 0.912,-20.429 -0.365,-2.371 -1.551,-3.557 -2.281,-5.836 0,-1.642 0.366,-3.01 0.366,-4.925 2.824,-0.64 5.286,0.271 7.658,1.731 l 0,0 z m 0,70.772 c -0.912,0.639 -1.095,1.642 -1.825,2.188 l 1.277,1.915 c -0.274,1.277 -0.912,1.643 -1.277,2.645 v 1.916 c 0.639,-0.365 1.277,-0.547 1.825,-0.729 v -7.935 z"
   id="path3037"
   style="fill:#c9caca;fill-rule:evenodd" />
	<path
   d="m 397.41,436.718 c -2.554,-1.003 -5.472,0.364 -8.391,-1.003 1.003,-0.273 1.642,0 2.919,-0.273 l 0.911,-0.639 c 0.365,-0.365 1.004,-1.643 1.004,-3.01 -2.827,-2.189 -5.199,-4.195 -8.664,-5.837 -3.922,-0.912 -8.846,-3.557 -13.68,-2.827 -0.73,-0.729 -3.011,-1.369 -3.283,-3.283 4.195,-0.639 7.843,1.641 12.313,2.28 3.556,2.188 8.48,3.556 12.676,5.836 l 0.912,1.003 c 1.368,0 1.368,0.912 2.918,1.187 0.639,0.456 1.278,1.095 2.281,2.006 0,1.003 0.363,2.28 1.003,2.919 l -1.003,1.642 h -1.916 l 0,-10e-4 z m -45.418,-6.841 0.912,-0.912 -0.912,0.912 0,0 z m 4.196,-1.641 c 0,-1.916 1.642,-3.467 2.279,-5.837 l 0.64,0.364 v 1.003 l -0.913,1.915 c -0.638,0.639 -1.004,1.642 -2.006,2.555 l 0,0 z m -2.919,-1.916 c 0.274,-0.911 1.004,-2.006 1.915,-2.918 l 0.365,0.912 c 0,1.095 -1.003,2.006 -2.28,2.006 l 0,0 z m 1.915,-7.113 1.368,-1.642 h 1.915 c 0.912,-2.918 2.555,-4.468 3.923,-6.475 l 1.642,-1.003 c 0.912,-1.916 0.912,-3.283 1.642,-4.833 1.185,-1.003 1.642,-1.916 2.554,-2.372 6.201,-1.916 13.041,0 18.604,-1.916 -2.371,-1.55 -5.563,-2.827 -7.57,-4.468 -1.915,-0.365 -2.188,-2.28 -3.83,-2.28 1.642,1.641 3.83,2.553 4.469,4.195 v 1.003 l -1.642,1.277 c -3.283,0 -5.836,0.638 -8.664,0.638 l -0.729,-0.638 v -1.003 c 0.274,-1.916 1.277,-2.645 1.642,-3.831 1.276,-1.368 2.554,-2.645 3.557,-3.009 -0.639,-0.913 -1.915,-0.913 -2.553,-1.186 -1.643,0.547 -1.916,0.912 -3.011,1.915 -0.911,3.192 -2.553,5.837 -4.194,8.117 -6.476,2.28 -13.589,0.638 -19.518,2.28 l -1.641,-1.094 -0.274,-1.916 c 1.368,-1.915 2.554,-3.192 3.557,-5.107 -2.918,1.915 -5.837,4.469 -7.113,6.749 l -1.003,1.642 c 0.364,1.368 1.276,1.642 1.641,2.28 l 2.007,0.638 c 6.11,-2.645 12.951,-3.192 19.518,-3.192 0.273,1.277 0.273,1.916 0,2.828 -2.099,1.368 -1.368,3.921 -3.011,4.651 -0.003,3.557 -2.556,5.107 -3.286,7.752 z"
   id="path3039"
   style="fill:#c9caca;fill-rule:evenodd" />
	<path
   d="m 342.963,359.835 c -1.915,-0.912 -4.56,-0.912 -6.84,-1.642 -1.642,-1.55 -3.557,-2.553 -6.476,-3.557 l -0.638,-1.551 c 2.279,-5.563 -1.368,-11.4 0.912,-17.419 h 1.003 c 2.007,1.824 4.833,3.739 7.113,6.292 1.368,1.368 1.368,4.195 3.284,5.563 5.563,0 9.758,-4.561 15.596,-3.921 1.367,0 2.553,-1.277 3.282,-2.554 0.365,-0.73 1.551,-0.73 2.919,-1.368 1.276,0.365 1.642,-0.547 2.918,-1.277 l 0.365,-0.639 c -0.365,-1.732 -1.642,-2.736 -2.28,-5.016 v -1.915 c -0.365,-1.641 -1.368,-3.283 -2.371,-4.925 0.455,-4.195 1.368,-9.302 3.647,-13.589 1.642,-1.277 4.561,-0.365 6.841,-0.639 0.911,4.925 0,10.032 2.554,15.23 l 1.367,1.368 c 4.196,1.916 9.759,0.273 14.593,0.913 l 2.918,1.003 0.912,-1.003 c 3.648,-0.913 7.479,-1.642 11.4,-1.642 0.364,1.003 3.01,0.729 3.647,1.916 -2.918,6.202 -2.279,14.774 -5.928,21.341 -0.273,0.638 -1.642,0.638 -2.918,1.186 -0.912,0 -1.551,0 -2.919,0 -0.911,-1.642 -2.918,-1.186 -4.195,-2.554 0,-1.003 0.639,-1.642 0.912,-2.919 l 1.642,-0.638 1.004,-1.916 c 0,-0.638 -0.639,-1.642 -1.004,-2.645 0.365,-2.645 1.368,-4.834 2.28,-7.935 l -0.912,-1.185 c -6.202,-1.095 -13.954,0 -19.243,3.466 l -0.273,1.094 c 0.273,1.277 2.28,1.642 2.918,3.284 -4.561,0.273 -8.755,2.28 -13.68,3.921 -3.192,1.003 -6.749,2.554 -11.036,3.831 l -0.639,1.003 c -1.275,0.364 -2.279,1.003 -3.647,2.007 -3.191,1.186 -6.475,5.106 -8.117,8.39 l -0.911,0.641 z"
   id="path3041"
   style="fill:#c9caca;fill-rule:evenodd" />
	<path
   d="m 400.693,185.823 c 0.912,-0.456 1.825,-1.003 2.554,-1.55 1.642,0 3.922,0 5.837,0 1.003,0 1.643,0.547 2.918,0.912 4.926,2.554 7.479,8.117 11.4,11.948 0,1.094 0.729,1.641 1.004,3.009 l 0.912,0.639 c 0.729,0.273 0.729,1.641 1.367,2.918 -0.364,2.006 1.004,3.557 0.274,5.836 -2.28,0.365 -5.563,1.003 -7.753,2.919 -2.006,0.638 -3.647,1.003 -5.837,1.003 -1.368,1.277 -2.644,2.554 -5.289,3.192 -2.554,0.273 -3.192,0.729 -4.47,1.003 -1.002,0.639 -1.367,1.642 -2.645,2.28 h -0.273 v -9.029 c 3.739,-3.283 7.479,-6.292 9.394,-10.488 2.28,-3.283 1.643,-7.752 -0.364,-10.762 -1.642,-0.912 -3.922,-1.916 -5.563,-2.554 l -1.915,-0.638 c -0.456,0.365 -1.004,0.547 -1.551,0.638 v -1.276 z m -14.774,-15.23 c 1.276,0 2.554,0 3.739,0 l 1.368,1.915 c 0,4.56 -1.004,8.755 -1.004,13.68 0,1.551 1.643,1.551 2.827,2.281 1.277,-0.73 3.923,-1.642 5.929,-2.006 0.639,-0.092 1.276,-0.365 1.915,-0.639 v 1.277 c -0.456,0.183 -0.82,0.365 -1.004,0.638 -1.366,0.73 -2.917,0.365 -3.921,1.003 -0.912,2.006 -3.191,2.554 -4.469,3.557 0.639,9.759 -1.915,19.244 -1.277,28.272 1.643,-0.639 1.277,-1.642 1.916,-2.28 l 1.915,-0.639 c 2.007,-2.554 4.47,-4.742 6.84,-6.749 v 9.029 h -1.642 c -2.554,0.639 -4.195,2.281 -6.475,3.922 -0.274,16.872 -0.639,34.383 -0.912,51.528 -0.639,0.73 -0.639,2.372 -1.643,3.649 l -1.368,-1.003 c -0.638,-0.183 -1.641,-0.274 -2.735,-0.183 v -2.918 c 1.004,0.912 1.367,1.186 2.462,1.459 l 1.004,-1.642 c -1.368,-16.507 0,-32.467 -0.273,-48.701 l -0.73,-0.274 c -0.912,0.365 -1.732,0.639 -2.462,1.003 v -3.01 c 0.639,-0.456 1.004,-1.185 1.187,-1.915 -0.274,-2.188 0.363,-3.83 -0.274,-5.836 -0.365,0.182 -0.638,0.364 -0.912,0.546 v -45.964 z m -4.378,125.31 c -1.002,-30.826 0.365,-61.378 -1.276,-92.569 l -0.912,-1.277 -2.007,0.365 c -0.638,2.827 -3.283,4.834 -4.56,7.752 -2.007,1.642 -4.834,4.56 -6.201,7.205 -0.912,0.274 -1.552,0.913 -2.737,1.825 v -23.986 c 5.381,-0.821 10.763,-1.824 16.052,-1.916 l 1.642,-1.276 c 1.004,-2.919 -1.642,-6.567 -2.645,-9.394 0,-2.006 0.729,-3.648 0.729,-5.837 -0.273,-0.729 -1.003,-1.367 -1.915,-2.28 -1.367,-0.365 -1.642,-0.73 -3.009,-2.006 l -0.274,-0.638 1.003,-1.277 c 3.374,0 6.932,0 10.488,0 v 45.965 c -1.095,0.913 -1.003,2.189 -2.098,3.102 -0.638,1.186 -0.638,2.554 -0.638,3.557 l 0.638,0.912 c 0.912,0.183 1.642,0 2.098,-0.365 v 3.01 c -0.456,0.182 -0.82,0.547 -1.186,0.912 -0.548,13.68 -0.548,27.907 -2.188,40.949 1.003,2.28 2.188,3.557 2.918,5.837 0.183,0.183 0.364,0.365 0.456,0.456 v 2.918 c -0.364,0.091 -0.729,0.091 -1.186,0.183 -0.548,0.364 -0.548,1.642 -1.186,2.918 0,4.56 -0.729,8.755 0,13.589 l -2.006,1.366 0,0 z m -17.693,-52.35 c 1.46,-2.097 2.372,-4.56 3.467,-6.749 1.276,-1.277 1.55,-1.915 2.279,-2.918 0.912,-2.554 1.916,-4.833 2.828,-6.475 l -0.548,-1.642 c -3.101,0.547 -5.563,2.098 -8.026,3.466 v 2.553 l 0.457,-0.456 -0.457,0.456 v 11.765 z m 0,-24.35 c -0.091,0 -0.091,0.091 -0.091,0.091 l -2.006,-0.729 c -1.003,-0.912 -1.642,-1.915 -3.284,-2.827 -0.82,0 -1.549,-0.273 -2.735,-0.639 v -18.696 c 2.646,-0.274 5.382,-0.73 8.116,-1.186 v 23.986 l 0,0 z m 0,10.032 v 2.553 l -0.546,0.457 0.546,-0.457 v 11.765 c -0.273,0.365 -0.546,0.73 -0.82,1.095 -0.365,0.638 -2.006,0.273 -2.554,1.55 -1.003,0 -1.642,0.729 -2.918,0.729 -0.82,0 -1.004,-0.912 -1.824,-1.368 v -13.68 c 1.187,-0.092 2.279,-0.273 3.375,-0.547 1.731,-0.547 3.283,-1.276 4.741,-2.097 z m -8.117,-14.136 c -0.092,0 -0.183,-0.091 -0.183,-0.091 -0.638,-0.639 -1.276,-1.277 -2.28,-2.28 -1.55,-0.638 -3.191,-1.642 -4.833,-2.827 -1.004,0 -1.642,0 -3.01,-0.365 -0.911,0 -0.273,-1.915 -1.551,-2.279 h -1.003 l -0.912,-1.551 c -0.729,-0.73 -2.007,-1.642 -3.009,-2.371 0,-3.192 1.002,-6.476 1.641,-10.032 h 1.003 c 1.277,1.276 2.646,2.28 4.195,3.557 3.283,0.183 6.566,0 9.941,-0.456 v 18.695 l 10e-4,0 z m 0,16.781 v 13.68 c -0.274,-0.182 -0.456,-0.273 -0.82,-0.273 -0.639,-2.006 -1.643,-3.283 -2.28,-5.563 -0.274,-0.638 -1.642,-0.638 -2.918,-1.368 -1.004,0 -2.646,0 -3.923,0 -1.915,-0.912 -2.554,-2.827 -4.56,-4.469 -1.642,-2.554 -2.279,-6.749 -4.195,-9.759 l 0.273,-0.638 c 1.643,0 2.007,1.276 3.648,1.642 1.276,0.365 1.915,2.28 4.195,2.918 l 1.368,1.642 c 2.099,1.641 5.747,2.461 9.212,2.188 z"
   id="path3043"
   style="fill:#c9caca;fill-rule:evenodd" />
	<path
   d="m 466.997,522.902 c 1.642,0.456 3.192,1.096 4.377,2.371 0.73,0.274 0.365,1.916 1.642,2.554 3.648,-0.912 7.479,-2.279 11.766,-0.273 0.273,2.645 2.188,4.195 1.916,6.841 -0.64,0.912 -1.916,1.276 -3.558,1.915 -2.919,0.912 -7.843,2.279 -10.124,5.198 h -0.911 l -1.004,0.639 -1.003,2.006 -1.55,1.916 c -0.457,0.273 -0.912,0.638 -1.551,0.911 v -24.078 l 0,0 z m 0,-31.646 v -12.403 c 7.388,-4.47 17.146,-8.117 26.175,-6.476 l 2.645,1.277 1.915,0.639 c 0.639,0.638 1.004,1.642 2.007,2.554 0.273,1.003 0.639,2.645 0.639,3.921 l -1.369,1.643 c -4.56,1.367 -8.755,0.273 -13.68,2.553 l -0.547,0.729 c -1.368,0.639 -3.648,0.639 -4.925,1.915 -0.365,1.004 -1.55,1.277 -2.646,2.28 -1.914,0 -4.469,0.913 -6.748,0 -1.46,0 -2.19,0.73 -3.466,1.368 l 0,0 z m 0,-21.98 v -11.583 c 0.183,-0.183 0.364,-0.364 0.547,-0.638 0.547,-1.642 1.004,-1.916 1.915,-2.827 l 1.915,-2.006 v -1.004 c -1.459,-0.183 -2.918,-0.547 -4.377,-0.639 V 443.1 h 0.547 c 3.83,-2.189 8.025,-5.837 13.589,-3.83 2.28,0.273 3.648,1.641 5.837,2.28 0.639,0.547 1.642,1.003 2.645,1.915 0.639,1.914 1.004,3.557 0.639,5.836 -7.113,6.476 -12.677,14.958 -23.073,19.791 -10e-4,0.002 -0.093,0.094 -0.184,0.184 l 0,0 z m 0,-36.298 v -30.004 c 0.364,-0.183 0.729,-0.273 1.094,-0.456 1.003,0 1.642,0 3.01,0 l 1.277,1.368 v 1.916 c 0.364,2.006 1.642,3.192 2.279,5.837 1.643,1.276 2.007,3.647 3.923,5.198 -0.273,1.003 0,1.642 -0.273,2.918 -2.007,4.195 -6.202,6.202 -10.216,8.756 -0.364,1.55 -0.82,3.008 -1.094,4.467 z m -11.856,101.69 c 0.091,-0.092 0.273,-0.183 0.365,-0.273 1.276,0 0.912,-1.368 2.553,-1.368 l 1.004,-1.916 c -0.729,-0.638 -1.277,-1.367 -2.28,-1.915 -0.183,-1.276 -1.003,-2.098 -1.642,-3.283 v -7.114 c 0.183,-0.638 0.183,-1.276 0,-1.915 v -0.091 -2.188 c 2.371,-0.729 4.834,-1.186 7.479,0 l 0.638,0.639 c 1.368,1.914 -1.642,4.468 -0.272,6.749 1.276,0.364 2.735,0.546 4.013,0.911 v 24.077 c -1.187,0.73 -2.736,1.368 -4.378,1.368 -2.736,0.547 -4.378,2.371 -7.479,3.375 v -17.056 l -10e-4,0 z m 11.856,-131.695 v 30.004 c -0.273,1.733 -0.456,3.375 -0.456,5.291 0,1.276 -1.916,2.918 -1.003,4.56 l 1.459,0.273 v 7.479 c -0.729,-0.091 -1.368,-0.091 -2.098,0 l -1.003,1.643 c 0,2.006 0,3.191 -0.64,4.833 l 1.004,2.006 c 1.277,-0.273 2.188,-0.729 2.736,-1.368 v 11.583 c -0.365,0.365 -1.187,1.186 -1.733,1.733 -2.007,0.364 -2.645,1.642 -4.924,2.279 l -0.913,0.729 c -0.638,0.639 -1.368,1.187 -1.642,2.554 v 1.004 c -0.912,0 -1.732,0 -2.645,0 v -28.729 c 0.547,-0.274 1.095,-0.457 1.642,-0.457 1.276,-5.563 1.276,-11.126 2.919,-16.324 l 0.273,-1.642 c -0.912,-0.638 -2.189,0 -2.554,0.729 -0.821,1.551 -1.551,3.192 -2.28,4.925 v -5.107 c 0.091,-0.182 0.183,-0.364 0.365,-0.547 0,-0.638 0,-1.55 0.638,-2.554 0.274,-0.912 2.646,0 3.283,-1.642 v -1.915 c 0.913,-0.365 1.642,-0.639 2.188,-2.007 -0.912,-3.557 0.366,-6.749 -0.912,-10.67 v -1.003 l 0.365,-0.912 c 0.547,-1.642 2.555,-2.645 3.192,-5.199 0.823,-0.546 1.553,-1.093 2.739,-1.549 l 0,0 z m 0,75.88 v 12.403 c -0.091,0.091 -0.273,0.183 -0.456,0.273 l -1.916,1.277 c -2.644,1.915 -6.292,3.283 -9.119,6.201 -0.092,0 -0.274,0 -0.365,0 v -14.501 c 1.55,-0.729 3.101,-1.551 4.561,-2.371 1.002,0 1.642,0 2.918,-0.365 1.367,-1.002 2.826,-2.005 4.377,-2.917 z m -12.403,73.052 c -1.368,0 -2.007,-1.277 -3.648,-1.642 -0.364,-0.639 -0.82,-1.278 -1.276,-2.007 v -7.935 c 1.55,-1.824 3.374,-3.74 5.472,-5.654 v 17.055 c -0.183,0.091 -0.367,0.091 -0.548,0.183 l 0,0 z m 0.547,-25.993 c -0.365,-0.639 -0.729,-1.368 -1.003,-2.28 -0.456,-1.367 0.638,-3.101 1.003,-4.834 v 7.114 l 0,0 z m 0,-9.12 -0.547,-0.273 c -2.007,0.364 -2.736,1.551 -4.925,1.276 v -0.912 l 1.276,-1.002 c 1.369,-0.274 2.736,-0.821 4.195,-1.277 v 2.188 l 0.001,0 z m 0,-85.82 v 5.107 c -2.006,4.743 -3.466,9.85 -4.925,15.14 l 0.729,1.004 0.365,-0.366 c 0.547,-1.55 1.915,-1.276 2.554,-2.554 0.456,-0.09 0.911,-0.272 1.276,-0.455 v 28.729 c -1.824,0 -3.648,-0.092 -5.472,-0.183 v -8.026 c 0.82,-0.455 1.915,-0.273 1.915,-1.915 0,-1.276 0,-2.918 0,-3.921 l -1.003,-1.916 c -0.365,-1.915 0.729,-3.922 0.364,-5.472 -0.547,0.364 -1.003,0.82 -1.276,1.367 v -11.764 c 0.456,-1.095 1.186,-2.189 1.642,-3.922 0.912,-4.195 2.188,-5.837 3.283,-8.391 10e-4,-0.82 0.182,-1.824 0.548,-2.462 l 0,0 z m 0,53.535 v 14.501 c -1.733,0.184 -3.374,1.824 -5.472,2.007 v -13.589 c 1.732,-1.003 3.557,-2.007 5.472,-2.919 z m -5.472,63.75 c -1.004,-1.459 -1.824,-3.101 -2.28,-5.107 0.73,-0.912 1.459,-1.915 2.28,-2.827 v 7.934 l 0,0 z m 0,-30.462 -0.365,-0.639 0.365,-0.273 v 0.912 l 0,0 z m 0,-72.048 v 11.764 c -0.729,1.096 -0.912,2.372 -1.368,3.467 -0.639,3.283 -0.639,5.837 -0.639,8.846 l 1.003,0.548 c 0.183,-0.548 0.548,-0.821 1.004,-1.004 v 8.026 c -1.642,-0.092 -3.192,-0.274 -4.834,-0.547 -0.638,0.911 -1.368,1.642 -2.188,2.279 v -69.039 c 1.185,0.73 2.28,1.642 3.374,2.554 0.365,1.55 1.368,1.915 2.007,3.831 -1.369,6.839 -2.918,13.316 -2.007,20.519 -0.273,6.477 -1.642,13.955 -1.186,20.43 h 0.912 c 1.642,-2.553 2.28,-6.475 3.283,-9.758 0.091,-0.731 0.365,-1.278 0.639,-1.916 l 0,0 z m 0,41.679 v 13.589 c -0.456,0.091 -0.912,0 -1.368,-0.092 -0.273,1.277 -1.277,2.28 -2.28,3.923 0.365,0.638 0.365,1.914 1.368,2.553 0,1.004 0,2.28 0,3.648 -1.276,1.186 -2.919,1.368 -4.742,1.276 V 493.08 c 0.364,-0.092 0.82,-0.273 1.185,-0.639 1.367,-2.005 3.465,-3.647 5.837,-5.015 l 0,0 z m -7.023,1.368 c 0.273,0 0.638,-0.092 0.82,-0.183 1.368,-2.006 0.912,-5.198 0.912,-7.479 l -0.548,-0.639 c -0.547,0.091 -0.911,0.183 -1.185,0.456 v 7.845 z m 0,-78.707 v 69.039 c -1.095,1.003 -2.28,1.915 -3.375,3.01 -1.368,0.274 -1.368,-1.642 -3.283,-1.642 -1.368,0 -1.641,1.004 -2.919,1.642 l -0.363,0.912 c 0.729,0.365 0.729,1.915 1.914,2.645 v 1.915 c -1.186,1.004 -1.914,1.643 -4.194,2.28 -1.915,0.273 -1.643,-1.641 -3.558,-1.915 -0.638,-0.639 -1.276,-1.367 -1.915,-2.28 l -1.003,-0.365 c -1.003,0 -2.28,0.365 -2.919,1.004 -1.003,1.276 -2.554,3.283 -4.561,4.47 -3.556,5.836 -4.469,13.041 -5.836,20.52 l 1.915,0.273 c 4.925,-2.188 6.84,-6.748 12.769,-8.025 0.273,-0.365 0.912,-2.007 1.55,-2.646 2.646,-1.642 5.198,-3.557 8.847,-4.833 0.547,-0.365 1.186,-1.004 2.188,-2.007 1.095,-1.095 3.011,-0.364 4.743,-1.003 v 19.243 c -1.915,-0.091 -3.922,-0.547 -5.746,-0.364 -2.553,-0.365 -3.831,-2.007 -5.837,-3.193 l -0.638,1.187 c -0.912,0.729 -2.28,1.368 -3.923,2.007 -2.553,2.28 -6.475,4.195 -9.393,6.839 l -0.274,0.912 c -1.003,1.004 -2.279,2.007 -3.921,3.284 h -2.28 c -1.004,-0.639 -0.274,-2.28 -2.28,-2.918 -1.003,0 -2.645,1.002 -3.922,1.002 -1.642,-2.28 -2.918,-5.563 -4.56,-8.117 -0.639,-4.924 -1.916,-10.031 0,-14.683 1.915,-4.195 4.56,-7.752 7.204,-11.673 4.195,-2.554 7.114,-6.477 12.313,-8.756 l 1.004,-1.915 c -0.365,-1.642 -1.368,-2.919 -1.368,-4.925 l -0.548,-0.639 c -0.638,-3.831 0,-8.391 -1.367,-12.678 1.003,-10.943 0,-22.617 1.642,-34.018 0.638,-0.639 1.276,-1.368 2.553,-1.642 h 1.004 l 1.003,1.642 c 0,7.479 2.645,15.596 0.639,23.348 l 1.003,2.007 c -1.276,6.109 -1.642,13.314 -1.003,20.337 -1.277,2.646 0,4.926 1.003,7.844 l 1.915,0.365 c 1.003,0 0.274,-1.916 1.643,-2.371 2.553,0 4.924,-0.274 7.751,-1.551 -1.186,-11.035 1.095,-22.436 -0.273,-34.109 1.915,-6.11 0.912,-13.315 0.912,-20.429 -0.273,-2.28 -1.551,-3.557 -2.28,-5.837 0,-1.641 0.456,-2.918 0.456,-4.925 2.735,-0.548 5.288,0.364 7.568,1.732 l 0,0 z m 0,70.863 c -0.912,0.548 -1.095,1.642 -1.824,2.098 l 1.368,1.915 c -0.365,1.368 -1.003,1.643 -1.368,2.645 v 2.007 c 0.638,-0.456 1.276,-0.639 1.824,-0.82 v -7.845 z"
   id="path3045"
   style="fill-rule:evenodd" />
	<path
   d="m 394.948,435.076 c -2.554,-1.095 -5.473,0.273 -8.3,-1.095 0.912,-0.273 1.642,0 2.827,-0.273 l 1.003,-0.638 c 0.274,-0.273 0.912,-1.643 0.912,-2.919 -2.826,-2.28 -5.107,-4.195 -8.663,-5.837 -3.923,-1.004 -8.847,-3.648 -13.681,-2.918 -0.639,-0.729 -2.919,-1.368 -3.283,-3.284 4.286,-0.638 7.843,1.642 12.403,2.281 3.557,2.28 8.481,3.556 12.586,5.836 l 0.912,1.003 c 1.367,0 1.367,0.912 3.009,1.277 0.64,0.365 1.277,1.003 2.281,1.915 0,1.003 0.273,2.372 1.002,3.01 l -1.002,1.642 h -2.006 l 0,0 z m -45.327,-6.931 0.912,-0.912 -0.912,0.912 0,0 z m 4.195,-1.642 c 0,-1.915 1.641,-3.466 2.279,-5.836 l 0.548,0.456 v 0.912 l -0.912,1.915 c -0.638,0.638 -1.002,1.641 -1.915,2.553 l 0,0 z m -3.009,-1.915 c 0.365,-0.912 1.003,-1.915 2.007,-2.918 l 0.272,1.003 c 0,1.003 -0.911,1.915 -2.279,1.915 l 0,0 z m 2.006,-7.114 1.276,-1.642 h 2.006 c 0.912,-2.918 2.555,-4.469 3.831,-6.476 l 1.642,-1.003 c 1.004,-1.915 1.004,-3.283 1.642,-4.833 1.276,-1.003 1.642,-1.915 2.554,-2.28 6.201,-2.006 13.041,0 18.605,-2.006 -2.371,-1.551 -5.564,-2.828 -7.479,-4.47 -1.915,-0.364 -2.279,-2.28 -3.921,-2.28 1.642,1.642 3.921,2.554 4.56,4.195 v 1.003 l -1.642,1.276 c -3.283,0 -5.837,0.73 -8.755,0.73 l -0.729,-0.73 v -0.912 c 0.365,-2.006 1.367,-2.645 1.642,-3.922 1.367,-1.368 2.554,-2.645 3.647,-2.918 -0.639,-1.003 -2.006,-1.003 -2.645,-1.277 -1.642,0.638 -1.915,0.913 -2.919,1.916 -0.912,3.192 -2.554,5.837 -4.194,8.117 -6.477,2.28 -13.681,0.639 -19.518,2.28 l -1.642,-1.003 -0.364,-2.006 c 1.367,-1.916 2.645,-3.192 3.647,-5.108 -3.01,1.916 -5.837,4.56 -7.205,6.749 l -0.912,1.642 c 0.274,1.368 1.277,1.642 1.552,2.28 l 2.006,0.729 c 6.201,-2.645 12.95,-3.283 19.517,-3.283 0.273,1.277 0.273,1.915 0,2.827 -2.007,1.368 -1.368,3.922 -2.919,4.651 0,3.559 -2.645,5.11 -3.283,7.754 z"
   id="path3047"
   style="fill-rule:evenodd" />
	<path
   d="m 340.592,358.102 c -2.007,-0.912 -4.651,-0.912 -6.932,-1.641 -1.642,-1.551 -3.557,-2.554 -6.475,-3.466 l -0.638,-1.642 c 2.279,-5.563 -1.278,-11.4 1.003,-17.419 h 1.003 c 1.915,1.824 4.833,3.74 7.113,6.293 1.277,1.368 1.277,4.286 3.284,5.563 5.472,0 9.758,-4.468 15.595,-3.921 1.277,0 2.553,-1.277 3.283,-2.554 0.273,-0.638 1.55,-0.638 2.827,-1.276 1.368,0.273 1.642,-0.638 3.009,-1.368 l 0.274,-0.638 c -0.274,-1.642 -1.642,-2.736 -2.28,-4.925 V 329.1 c -0.364,-1.641 -1.276,-3.283 -2.28,-4.925 0.365,-4.195 1.277,-9.302 3.558,-13.589 1.642,-1.276 4.56,-0.273 6.84,-0.638 1.003,4.925 0,10.032 2.646,15.322 l 1.276,1.276 c 4.195,1.916 9.758,0.365 14.592,0.913 l 2.919,1.003 1.003,-1.003 c 3.557,-0.913 7.478,-1.642 11.399,-1.642 0.274,1.094 2.92,0.729 3.558,2.006 -2.919,6.11 -2.28,14.683 -5.837,21.25 -0.365,0.638 -1.643,0.638 -3.009,1.277 -0.913,0 -1.551,0 -2.828,0 -1.003,-1.642 -3.01,-1.277 -4.286,-2.645 0,-1.003 0.639,-1.55 1.003,-2.918 l 1.642,-0.638 1.003,-1.915 c 0,-0.638 -0.729,-1.642 -1.003,-2.554 0.273,-2.645 1.277,-4.925 2.28,-8.026 l -1.003,-1.186 c -6.111,-1.003 -13.954,0 -19.152,3.465 l -0.365,1.095 c 0.365,1.368 2.28,1.642 2.918,3.283 -4.56,0.365 -8.755,2.28 -13.68,3.922 -3.192,1.003 -6.749,2.553 -10.944,3.921 l -0.729,1.003 c -1.276,0.274 -2.28,0.913 -3.557,1.916 -3.192,1.277 -6.475,5.107 -8.117,8.391 l -0.913,0.638 z"
   id="path3049"
   style="fill-rule:evenodd" />
	<path
   d="m 398.323,184.09 c 0.911,-0.456 1.731,-1.003 2.553,-1.55 1.643,0 3.83,0 5.837,0 1.003,0 1.642,0.638 2.827,0.912 4.925,2.554 7.57,8.116 11.4,12.039 0,1.003 0.729,1.642 1.003,2.918 l 1.004,0.638 c 0.638,0.273 0.638,1.642 1.276,2.918 -0.273,2.006 1.003,3.557 0.364,5.928 -2.279,0.273 -5.563,0.912 -7.843,2.827 -1.915,0.638 -3.557,1.003 -5.837,1.003 -1.368,1.277 -2.554,2.554 -5.198,3.192 -2.646,0.365 -3.191,0.729 -4.56,1.003 -0.913,0.638 -1.277,1.642 -2.555,2.28 h -0.272 v -9.029 c 3.738,-3.283 7.387,-6.292 9.393,-10.397 2.28,-3.283 1.55,-7.843 -0.364,-10.761 -1.642,-1.003 -3.922,-2.006 -5.563,-2.554 l -1.915,-0.638 c -0.547,0.273 -1.095,0.456 -1.55,0.638 v -1.367 z m -14.775,-15.23 c 1.186,0 2.463,0 3.738,0 l 1.278,2.006 c 0,4.469 -1.004,8.664 -1.004,13.589 0,1.551 1.642,1.551 2.918,2.28 1.277,-0.729 3.922,-1.642 5.838,-1.915 0.639,-0.183 1.367,-0.365 2.007,-0.73 v 1.368 c -0.548,0.091 -0.913,0.273 -1.095,0.547 -1.277,0.729 -2.828,0.456 -3.831,1.003 -1.003,2.007 -3.283,2.645 -4.469,3.648 0.639,9.758 -2.006,19.152 -1.368,28.181 1.642,-0.639 1.368,-1.642 2.007,-2.281 l 1.823,-0.638 c 2.098,-2.554 4.47,-4.651 6.933,-6.749 v 9.029 h -1.733 c -2.555,0.639 -4.195,2.28 -6.476,3.921 -0.274,16.873 -0.547,34.474 -0.912,51.529 -0.638,0.729 -0.638,2.372 -1.642,3.648 l -1.277,-0.912 c -0.729,-0.273 -1.731,-0.364 -2.735,-0.273 v -2.918 c 0.912,1.003 1.276,1.276 2.371,1.55 l 1.004,-1.642 c -1.277,-16.508 0,-32.559 -0.274,-48.701 l -0.729,-0.365 c -0.912,0.365 -1.733,0.638 -2.371,1.003 v -3.01 c 0.638,-0.457 1.004,-1.186 1.186,-1.824 -0.364,-2.28 0.273,-3.922 -0.364,-5.928 -0.365,0.183 -0.639,0.365 -0.821,0.547 V 168.86 z m -4.378,125.31 c -1.003,-30.826 0.273,-61.378 -1.368,-92.568 l -0.912,-1.186 -1.915,0.273 c -0.729,2.919 -3.283,4.833 -4.651,7.752 -1.915,1.642 -4.834,4.56 -6.11,7.205 -0.911,0.273 -1.641,0.912 -2.827,1.824 v -23.895 c 5.382,-0.912 10.762,-1.824 16.143,-2.007 l 1.642,-1.276 c 0.912,-2.918 -1.642,-6.475 -2.645,-9.394 0,-1.915 0.639,-3.557 0.639,-5.837 -0.274,-0.729 -1.004,-1.368 -1.916,-2.28 -1.276,-0.364 -1.642,-0.729 -2.918,-1.915 l -0.365,-0.729 1.004,-1.277 c 3.375,0 6.931,0 10.579,0 v 45.965 c -1.095,1.003 -1.003,2.28 -2.098,3.101 -0.639,1.186 -0.639,2.554 -0.639,3.557 l 0.639,0.912 c 0.82,0.183 1.55,0 2.098,-0.364 v 3.01 c -0.548,0.273 -0.912,0.547 -1.186,1.003 -0.639,13.589 -0.639,27.816 -2.28,40.858 1.003,2.281 2.28,3.557 3.009,5.837 0.183,0.183 0.274,0.365 0.457,0.457 v 2.918 c -0.457,0.092 -0.82,0.183 -1.186,0.273 -0.639,0.274 -0.639,1.551 -1.277,2.828 0,4.651 -0.638,8.846 0,13.68 l -1.917,1.275 0,0 z m -17.784,-52.349 c 1.459,-2.098 2.371,-4.469 3.466,-6.658 1.276,-1.368 1.551,-2.007 2.28,-3.01 0.912,-2.553 2.007,-4.833 2.918,-6.475 l -0.639,-1.642 c -3.101,0.638 -5.472,2.097 -8.025,3.465 v 2.554 l 0.548,-0.456 -0.548,0.456 v 11.766 z m 0,-24.351 c 0,0.091 -0.091,0.091 -0.091,0.091 l -1.916,-0.638 c -1.094,-1.003 -1.641,-2.006 -3.283,-2.918 -0.912,0 -1.55,-0.274 -2.827,-0.639 v -18.605 c 2.736,-0.364 5.473,-0.821 8.117,-1.186 v 23.895 l 0,0 z m 0,10.032 v 2.554 l -0.456,0.456 0.456,-0.456 v 11.765 c -0.272,0.364 -0.456,0.729 -0.82,1.094 -0.273,0.638 -1.915,0.273 -2.555,1.551 -1.003,0 -1.641,0.729 -2.918,0.729 -0.729,0 -0.911,-0.821 -1.824,-1.368 v -13.68 c 1.187,0 2.371,-0.273 3.467,-0.547 1.641,-0.456 3.191,-1.277 4.65,-2.098 z m -8.117,-14.136 c 0,0 -0.091,0 -0.183,-0.091 -0.638,-0.547 -1.185,-1.186 -2.279,-2.189 -1.551,-0.638 -3.192,-1.642 -4.834,-2.918 -1.003,0 -1.642,0 -2.918,-0.273 -0.912,0 -0.365,-2.006 -1.551,-2.372 h -1.003 l -1.003,-1.55 c -0.639,-0.729 -2.006,-1.642 -2.919,-2.371 0,-3.192 0.913,-6.476 1.642,-10.033 h 0.912 c 1.368,1.369 2.645,2.281 4.195,3.557 3.283,0.183 6.657,0 9.94,-0.365 v 18.605 l 0.001,0 z m 0,16.781 v 13.68 c -0.183,-0.091 -0.455,-0.182 -0.82,-0.274 -0.547,-2.006 -1.642,-3.283 -2.188,-5.563 -0.365,-0.639 -1.642,-0.639 -3.011,-1.277 -0.911,0 -2.554,0 -3.921,0 -1.824,-1.003 -2.554,-2.918 -4.469,-4.56 -1.642,-2.553 -2.28,-6.749 -4.286,-9.759 l 0.365,-0.638 c 1.641,0 1.914,1.277 3.556,1.642 1.368,0.365 2.007,2.28 4.195,2.918 l 1.368,1.642 c 2.188,1.642 5.745,2.463 9.211,2.189 z"
   id="path3051"
   style="fill-rule:evenodd" />
	<path
   d="m 269.729,502.019 v -0.457 h 0.091 v 0.457 h -0.091 l 0,0 z m 0,-6.659 3.465,6.475 3.01,-0.091 v -0.456 c -0.638,-0.091 -1.094,-0.273 -1.551,-0.638 -0.365,-0.274 -0.821,-1.004 -1.368,-2.007 l -2.462,-4.651 c 0.912,-0.365 1.641,-0.912 2.098,-1.643 0.364,-0.729 0.639,-1.641 0.547,-2.644 0,-0.912 -0.183,-1.733 -0.638,-2.372 -0.365,-0.639 -0.912,-1.094 -1.459,-1.368 -0.365,-0.182 -0.913,-0.273 -1.642,-0.273 v 1.003 c 0.456,0.092 0.912,0.365 1.186,0.821 0.456,0.548 0.729,1.459 0.729,2.462 0,1.003 -0.273,1.916 -0.729,2.555 -0.365,0.364 -0.73,0.729 -1.186,0.911 v 1.916 l 0,0 z m 14.957,-10.397 0.091,5.655 h -0.273 c -0.182,-1.096 -0.365,-1.916 -0.639,-2.554 -0.183,-0.639 -0.638,-1.186 -1.094,-1.551 -0.456,-0.365 -0.912,-0.548 -1.459,-0.548 -0.547,0 -1.095,0.274 -1.459,0.821 -0.365,0.547 -0.547,1.094 -0.547,1.732 0,0.456 0.182,0.912 0.456,1.368 0.273,0.548 1.094,1.368 2.462,2.372 1.003,0.82 1.733,1.459 2.189,1.823 0.365,0.456 0.638,1.003 0.912,1.551 0.183,0.638 0.273,1.186 0.273,1.915 0,1.186 -0.273,2.28 -0.912,3.191 -0.638,0.912 -1.55,1.369 -2.553,1.369 -0.365,0 -0.638,0 -0.912,-0.091 -0.183,-0.092 -0.547,-0.184 -1.094,-0.457 -0.547,-0.273 -0.912,-0.364 -1.003,-0.364 -0.091,0 -0.182,0.091 -0.274,0.182 -0.091,0.092 -0.091,0.365 -0.183,0.73 h -0.273 l -0.092,-5.564 h 0.365 c 0.092,1.187 0.365,2.007 0.457,2.646 0.273,0.546 0.639,1.002 1.186,1.367 0.456,0.456 1.003,0.639 1.641,0.639 0.639,-0.092 1.186,-0.365 1.642,-0.821 0.365,-0.547 0.547,-1.185 0.547,-1.915 0,-0.364 -0.091,-0.821 -0.274,-1.186 -0.091,-0.456 -0.364,-0.82 -0.729,-1.186 -0.183,-0.183 -0.73,-0.729 -1.733,-1.459 -1.003,-0.821 -1.641,-1.46 -2.097,-1.916 -0.274,-0.455 -0.639,-0.912 -0.821,-1.459 -0.273,-0.638 -0.364,-1.186 -0.364,-1.916 0,-1.185 0.273,-2.188 0.912,-3.009 0.547,-0.82 1.277,-1.276 2.28,-1.276 0.547,0 1.186,0.182 1.915,0.547 0.274,0.273 0.456,0.364 0.638,0.364 0.091,0 0.274,-0.091 0.365,-0.182 0.092,-0.183 0.092,-0.457 0.183,-0.821 h 0.271 l 0,0.003 z m 8.481,16.689 v 0.457 l -4.833,-0.183 v -0.456 h 0.364 c 0.457,0 0.821,-0.183 1.003,-0.548 0.182,-0.272 0.274,-0.82 0.274,-1.823 l 0.091,-10.58 c 0,-0.82 0,-1.367 -0.091,-1.641 0,-0.184 -0.092,-0.365 -0.274,-0.548 -0.273,-0.183 -0.547,-0.273 -0.821,-0.273 h -0.364 v -0.456 l 4.833,0.183 v 0.456 h -0.456 c -0.457,0 -0.729,0.183 -1.003,0.547 -0.092,0.182 -0.183,0.82 -0.183,1.824 l -0.183,10.58 c 0,0.82 0.091,1.367 0.091,1.641 0.091,0.183 0.182,0.365 0.365,0.456 0.273,0.273 0.456,0.364 0.73,0.364 h 0.457 l 0,0 z m 11.948,-15.504 0.091,3.83 h -0.365 c 0,-0.729 -0.091,-1.185 -0.183,-1.459 -0.182,-0.547 -0.456,-0.82 -0.729,-1.094 -0.274,-0.183 -0.639,-0.365 -1.095,-0.365 l -1.642,-0.092 -0.092,12.495 c 0,1.004 0,1.642 0.183,1.915 0.183,0.273 0.547,0.456 1.003,0.548 h 0.365 v 0.455 l -4.742,-0.182 v -0.456 h 0.364 c 0.457,0 0.82,-0.183 1.003,-0.639 0.183,-0.183 0.183,-0.82 0.183,-1.732 l 0.183,-12.404 -1.368,-0.09 c -0.547,0 -0.912,0 -1.094,0.09 -0.273,0.184 -0.547,0.457 -0.729,0.912 -0.273,0.366 -0.365,1.004 -0.456,1.733 h -0.273 l 0.183,-3.83 9.21,0.365 0,0 z m 10.123,1.186 3.922,0.365 v 0.456 l -0.183,-0.091 c -0.183,0 -0.365,0.091 -0.638,0.273 -0.275,0.182 -0.548,0.364 -0.821,0.729 -0.183,0.272 -0.548,0.82 -0.912,1.551 l -2.919,6.019 -0.091,4.014 c -0.091,1.002 0,1.641 0.091,1.914 0.273,0.365 0.548,0.547 1.004,0.639 h 0.364 v 0.456 l -4.742,-0.456 v -0.456 l 0.364,0.092 c 0.457,0 0.82,-0.183 1.095,-0.548 0.091,-0.272 0.183,-0.82 0.183,-1.732 l 0.183,-3.831 -2.827,-7.113 c -0.365,-0.82 -0.639,-1.367 -0.729,-1.55 -0.092,-0.274 -0.365,-0.548 -0.73,-0.821 -0.183,-0.091 -0.273,-0.183 -0.547,-0.183 v -0.455 l 4.834,0.455 v 0.456 h -0.274 c -0.273,-0.091 -0.456,0 -0.729,0.183 -0.183,0.091 -0.274,0.365 -0.365,0.729 0,0.273 0.183,0.821 0.455,1.642 l 2.189,5.472 2.371,-4.833 c 0.365,-0.73 0.548,-1.277 0.548,-1.642 0,-0.273 0,-0.456 -0.092,-0.639 -0.091,-0.182 -0.183,-0.364 -0.273,-0.456 -0.183,-0.092 -0.364,-0.183 -0.729,-0.183 v -0.456 z m -45.509,-1.642 v 1.003 c -0.183,-0.09 -0.365,-0.09 -0.547,-0.09 -0.365,0 -0.821,0.09 -1.368,0.273 l 0.183,6.748 c 0.091,0 0.182,0 0.273,0 0.091,0 0.182,0 0.182,0 0.547,0 0.913,-0.092 1.277,-0.183 v 1.916 l -0.547,-1.004 c -0.273,0.092 -0.456,0.092 -0.638,0.092 -0.092,0 -0.183,0 -0.274,0 -0.091,0 -0.183,0 -0.273,0 l 0.182,4.743 c 0,1.002 0.091,1.641 0.273,1.914 0.183,0.273 0.547,0.456 0.913,0.456 h 0.365 v 0.457 l -4.743,0.182 v -0.456 h 0.456 c 0.456,-0.092 0.82,-0.273 1.003,-0.729 0.092,-0.274 0.183,-0.821 0.092,-1.823 l -0.183,-10.489 c -0.092,-1.095 -0.183,-1.642 -0.365,-1.915 -0.183,-0.364 -0.547,-0.547 -0.913,-0.547 l -0.456,0.091 v -0.456 l 4.104,-0.183 c 0.366,0 0.73,0 1.004,0 l 0,0 z m -82.537,35.477 v -4.194 l 0,0 0.273,-0.183 -0.273,4.377 0,0 0,0 z m 0,-16.78 c 0.182,0 0.365,0 0.456,0 0.365,0 0.638,0.092 0.821,0.183 0.183,0.091 0.457,0.364 0.912,0.82 l 1.824,11.036 c 0.183,0.912 0.183,1.459 0.183,1.732 -0.183,0.547 -0.456,0.821 -0.913,1.003 l -0.364,0.092 0.091,0.455 3.74,-1.275 -0.092,-0.457 -0.365,0.092 c -0.364,0.183 -0.729,0.091 -1.003,-0.092 -0.182,-0.183 -0.364,-0.821 -0.546,-1.823 l -1.642,-9.76 9.393,10.307 0.274,-0.091 -2.28,-13.407 c -0.182,-0.912 -0.182,-1.459 -0.182,-1.732 0.182,-0.548 0.456,-0.82 0.912,-1.003 l 0.365,-0.092 v -0.456 l -3.831,1.368 0.091,0.364 0.365,-0.091 c 0.456,-0.183 0.73,-0.091 1.003,0.183 0.183,0.183 0.365,0.729 0.547,1.733 l 1.551,9.12 -8.665,-9.576 -2.645,0.911 v 0.456 l 0,0 z m 24.441,-8.118 -0.091,-0.455 3.921,-1.095 0.091,0.455 -0.456,0.092 c -0.457,0.183 -0.73,0.548 -0.912,1.095 -0.091,0.273 -0.091,0.82 0.091,1.733 l 0.821,6.565 c 0.273,1.551 0.273,2.827 0.182,3.831 -0.091,0.912 -0.456,1.823 -1.003,2.554 -0.547,0.82 -1.368,1.368 -2.462,1.732 -1.186,0.273 -2.189,0.273 -2.918,-0.182 -0.639,-0.457 -1.185,-1.186 -1.642,-2.098 -0.273,-0.64 -0.547,-2.007 -0.729,-3.923 l -0.912,-6.292 c -0.091,-0.912 -0.273,-1.551 -0.547,-1.824 -0.183,-0.273 -0.547,-0.364 -0.912,-0.183 l -0.456,0.091 v -0.455 l 4.742,-1.277 0.092,0.456 -0.457,0.091 c -0.456,0.092 -0.729,0.456 -0.912,0.913 -0.092,0.272 -0.092,0.911 0.091,1.823 l 0.912,7.022 c 0.091,0.547 0.183,1.277 0.365,2.098 0.182,0.729 0.456,1.368 0.729,1.732 0.274,0.365 0.547,0.729 1.003,0.913 0.456,0.182 0.912,0.182 1.55,0 0.638,-0.184 1.277,-0.548 1.824,-1.186 0.456,-0.64 0.82,-1.277 0.912,-2.098 0.091,-0.729 0.091,-2.008 -0.183,-3.648 l -0.821,-6.566 c -0.182,-1.004 -0.365,-1.551 -0.547,-1.824 -0.273,-0.273 -0.547,-0.365 -1.003,-0.273 l -0.363,0.183 0,0 z m 5.108,-2.188 3.009,-0.729 8.299,10.397 -1.186,-9.212 c -0.091,-1.004 -0.273,-1.642 -0.456,-1.824 -0.183,-0.273 -0.547,-0.365 -1.003,-0.273 l -0.365,0.092 -0.091,-0.456 3.921,-0.912 v 0.456 l -0.364,0.091 c -0.457,0.091 -0.822,0.365 -0.913,0.821 -0.091,0.273 -0.091,0.911 0,1.823 l 1.642,13.589 h -0.273 l -8.846,-11.126 1.186,9.85 c 0.091,1.004 0.273,1.642 0.456,1.824 0.183,0.272 0.548,0.364 1.003,0.272 l 0.365,-0.09 0.091,0.455 -3.922,0.913 v -0.456 l 0.365,-0.092 c 0.457,-0.091 0.821,-0.365 0.912,-0.82 0.091,-0.273 0.091,-0.912 0,-1.824 l -1.368,-11.218 c -0.365,-0.457 -0.638,-0.729 -0.912,-0.821 -0.182,-0.182 -0.364,-0.273 -0.729,-0.364 -0.183,0 -0.456,0 -0.73,0.091 l -0.091,-0.457 0,0 z m 20.794,11.674 v 0.365 l -4.743,0.82 -0.092,-0.456 0.365,-0.092 c 0.547,0 0.82,-0.272 1.003,-0.729 0.092,-0.274 0.092,-0.912 0,-1.824 l -0.821,-10.488 c -0.091,-0.82 -0.182,-1.368 -0.273,-1.642 -0.091,-0.183 -0.182,-0.365 -0.365,-0.456 -0.273,-0.183 -0.547,-0.183 -0.821,-0.183 l -0.365,0.092 -0.091,-0.456 4.833,-0.73 v 0.365 l -0.365,0.092 c -0.456,0.091 -0.821,0.365 -0.912,0.729 -0.182,0.273 -0.182,0.912 -0.091,1.915 l 0.912,10.488 c 0.091,0.82 0.091,1.367 0.183,1.55 0.091,0.273 0.273,0.365 0.456,0.456 0.183,0.183 0.456,0.273 0.729,0.183 h 0.458 l 0,0.001 z m 12.403,-18.24 v 0.456 c -0.365,0.092 -0.639,0.365 -0.821,0.639 -0.274,0.456 -0.457,1.095 -0.639,1.915 l -2.735,14.501 h -0.274 l -5.381,-13.225 c -0.273,-0.729 -0.456,-1.094 -0.546,-1.276 -0.183,-0.183 -0.365,-0.365 -0.639,-0.456 -0.182,-0.183 -0.456,-0.183 -0.821,-0.183 v -0.456 l 4.561,-0.729 v 0.456 c -0.456,0.092 -0.821,0.364 -0.912,0.548 -0.182,0.182 -0.274,0.455 -0.182,0.729 0,0.365 0.182,1.003 0.547,1.824 l 3.648,9.028 1.824,-9.85 c 0.183,-0.912 0.273,-1.642 0.183,-2.007 0,-0.182 -0.092,-0.364 -0.274,-0.638 -0.182,-0.183 -0.456,-0.274 -0.821,-0.274 0,0 -0.091,0 -0.183,0 v -0.455 l 3.465,-0.547 0,0 z m 5.746,0.09 0.274,6.385 2.462,-0.183 c 0.638,-0.091 1.095,-0.183 1.277,-0.548 0.273,-0.364 0.364,-1.002 0.364,-2.006 h 0.365 l 0.274,5.654 -0.365,0.092 c -0.092,-0.821 -0.183,-1.368 -0.274,-1.551 -0.091,-0.274 -0.273,-0.457 -0.546,-0.639 -0.183,-0.091 -0.547,-0.182 -1.003,-0.091 l -2.463,0.183 0.274,5.381 c 0,0.729 0,1.186 0.091,1.276 0,0.183 0.091,0.273 0.273,0.365 0.092,0.092 0.274,0.092 0.639,0.092 l 1.915,-0.184 c 0.547,0 1.095,-0.091 1.368,-0.273 0.273,-0.183 0.547,-0.456 0.73,-0.821 0.365,-0.547 0.638,-1.367 1.003,-2.371 h 0.273 l -0.73,4.104 -8.664,0.82 v -0.455 h 0.365 c 0.273,-0.092 0.547,-0.183 0.729,-0.365 0.182,-0.182 0.273,-0.364 0.364,-0.639 0,-0.273 0,-0.82 0,-1.55 l -0.546,-10.579 c 0,-1.095 -0.092,-1.642 -0.274,-1.916 -0.182,-0.273 -0.546,-0.456 -1.003,-0.364 H 252.4 v -0.457 l 8.664,-0.729 0.274,3.557 h -0.274 c -0.183,-0.821 -0.364,-1.368 -0.456,-1.732 -0.182,-0.274 -0.365,-0.548 -0.729,-0.639 -0.182,-0.092 -0.547,-0.183 -1.094,-0.092 l -3.101,0.275 z m -68.492,16.326 v 0.456 c -0.091,0.092 -0.183,0.092 -0.273,0.092 l -0.092,-0.456 0.365,-0.092 0,0 z m 0,13.042 v 4.194 l -8.391,2.92 -0.091,-0.457 0.364,-0.091 c 0.274,-0.091 0.547,-0.273 0.729,-0.547 0.183,-0.183 0.273,-0.457 0.273,-0.729 0,-0.273 -0.091,-0.729 -0.182,-1.551 l -1.825,-10.306 c -0.091,-1.003 -0.273,-1.551 -0.456,-1.732 -0.273,-0.273 -0.639,-0.365 -1.094,-0.183 l -0.365,0.183 -0.091,-0.456 8.391,-2.919 0.73,3.375 -0.273,0.09 c -0.274,-0.729 -0.457,-1.276 -0.73,-1.549 -0.183,-0.274 -0.365,-0.457 -0.638,-0.457 -0.274,-0.091 -0.638,0 -1.186,0.183 l -3.01,1.003 1.094,6.294 2.371,-0.821 c 0.638,-0.183 1.003,-0.457 1.186,-0.82 0.183,-0.457 0.273,-1.186 0.091,-2.098 l 0.365,-0.092 0.912,5.563 -0.274,0.091 c -0.182,-0.729 -0.364,-1.277 -0.456,-1.459 -0.183,-0.182 -0.365,-0.364 -0.639,-0.456 -0.273,-0.091 -0.547,0 -1.003,0.092 l -2.462,0.911 0.912,5.199 c 0.092,0.729 0.274,1.094 0.274,1.276 0.091,0.091 0.183,0.183 0.273,0.273 0.183,0 0.365,0 0.638,-0.091 l 1.916,-0.64 c 0.547,-0.181 1.003,-0.455 1.277,-0.638 0.274,-0.273 0.456,-0.547 0.729,-1.003 0.185,-0.637 0.458,-1.458 0.641,-2.552 l 0,0 z m -38.031,18.058 v -0.913 c 0.365,0.183 0.638,0.274 1.094,0.183 l 0.092,0.456 -1.186,0.274 0,0 z m 0,-15.596 v -1.55 l 7.935,-2.28 0.638,3.648 -0.274,0.091 c -0.183,-0.639 -0.273,-1.094 -0.456,-1.276 -0.273,-0.456 -0.547,-0.729 -0.82,-0.821 -0.273,-0.182 -0.73,-0.182 -1.186,0 l -1.55,0.456 1.824,12.222 c 0.183,0.912 0.274,1.55 0.457,1.732 0.273,0.273 0.638,0.364 1.094,0.273 l 0.365,-0.183 v 0.457 l -4.651,1.367 v -0.456 l 0.365,-0.091 c 0.456,-0.092 0.729,-0.457 0.912,-0.912 0.092,-0.273 0,-0.821 -0.091,-1.733 l -1.824,-12.221 -1.277,0.365 c -0.547,0.182 -0.912,0.272 -1.094,0.456 -0.094,0.182 -0.276,0.274 -0.367,0.456 l 0,0 z m 11.765,5.381 4.104,-1.46 0.365,1.733 -4.195,1.459 -0.274,-1.732 0,0 z m 11.947,-15.413 0.912,5.472 -0.273,0.091 c -0.274,-1.003 -0.639,-1.824 -1.003,-2.28 -0.274,-0.547 -0.73,-0.911 -1.277,-1.186 -0.547,-0.182 -1.003,-0.182 -1.551,0 -0.546,0.184 -1.003,0.548 -1.276,1.186 -0.273,0.64 -0.365,1.277 -0.183,1.916 0,0.456 0.274,0.911 0.547,1.186 0.456,0.456 1.368,1.003 2.736,1.551 1.185,0.364 2.006,0.729 2.462,1.095 0.456,0.272 0.821,0.638 1.094,1.185 0.274,0.547 0.548,1.095 0.639,1.733 0.182,1.185 0,2.279 -0.457,3.374 -0.456,1.095 -1.276,1.824 -2.28,2.188 -0.274,0.092 -0.638,0.183 -0.912,0.274 -0.183,0 -0.547,-0.092 -1.094,-0.092 -0.547,-0.091 -0.912,-0.091 -1.003,0 -0.182,0 -0.274,0.092 -0.365,0.273 0,0.092 0,0.365 0,0.73 l -0.273,0.09 -1.003,-5.38 0.364,-0.091 c 0.274,1.094 0.639,1.823 1.003,2.28 0.274,0.547 0.73,0.911 1.277,1.094 0.547,0.183 1.094,0.183 1.732,0 0.639,-0.273 1.095,-0.73 1.459,-1.368 0.273,-0.638 0.365,-1.276 0.273,-2.006 -0.091,-0.365 -0.273,-0.729 -0.456,-1.095 -0.183,-0.365 -0.547,-0.638 -0.913,-0.912 -0.182,-0.091 -0.912,-0.456 -1.915,-0.82 -1.095,-0.457 -1.824,-0.821 -2.372,-1.187 -0.456,-0.272 -0.821,-0.729 -1.095,-1.186 -0.273,-0.455 -0.547,-1.003 -0.638,-1.641 -0.183,-1.187 -0.091,-2.28 0.365,-3.283 0.456,-1.004 1.186,-1.733 2.098,-2.007 0.638,-0.274 1.276,-0.274 2.006,-0.091 0.273,0.091 0.547,0.182 0.638,0.091 0.183,0 0.273,-0.183 0.365,-0.274 0,-0.182 0.091,-0.456 0.091,-0.82 l 0.278,-0.09 z m -23.712,8.482 v 1.55 c -0.092,0.183 -0.183,0.365 -0.274,0.64 -0.091,0.455 -0.091,1.093 -0.091,1.823 l -0.273,0.092 -0.456,-3.739 1.094,-0.366 0,0 z m 0,16.233 c 0,0 0,0 -0.092,0 -0.273,-0.272 -0.638,-0.911 -1.094,-1.823 L 143.05,521.9 v 3.922 l 1.916,4.013 -1.916,0.547 v 0.912 l 2.28,-0.638 1.003,2.097 c 0.273,0.639 0.456,1.186 0.546,1.551 0,0.273 0,0.456 -0.182,0.73 -0.092,0.182 -0.365,0.364 -0.821,0.547 l 0.091,0.455 3.192,-1.002 v -0.914 z m -6.111,-12.221 v 3.922 l -0.912,-1.915 -1.003,7.021 1.915,-0.547 v 0.912 l -2.006,0.639 -0.365,2.736 c -0.091,0.639 -0.091,1.094 -0.091,1.459 0,0.274 0.183,0.455 0.365,0.547 0.183,0.183 0.547,0.183 1.094,0.091 v 0.457 l -3.465,1.003 v -0.456 c 0.365,-0.273 0.638,-0.547 0.821,-0.729 0.183,-0.457 0.365,-1.277 0.547,-2.554 l 1.915,-14.319 0.274,-0.09 0.911,1.823 0,0 z m -78.888,17.694 v -0.912 l 1.915,0.364 -1.368,-6.931 -0.547,1.459 v -2.098 l 1.186,-3.01 0.273,0.091 2.736,14.228 c 0.273,1.095 0.456,1.825 0.729,2.188 0.182,0.365 0.547,0.64 1.003,0.821 l -0.09,0.365 -4.378,-0.821 v -0.456 c 0.456,0.091 0.821,0 1.003,-0.091 0.091,-0.182 0.273,-0.364 0.273,-0.639 0,-0.364 -0.091,-0.912 -0.182,-1.732 l -0.547,-2.463 -2.006,-0.363 0,0 z m 17.146,2.735 0.273,0.092 -1.003,4.378 -8.755,-0.547 v -0.457 h 0.456 c 0.456,0.092 0.821,-0.182 1.003,-0.547 0.182,-0.274 0.182,-0.912 0.274,-1.824 l 0.182,-10.488 c 0.091,-1.003 0,-1.642 -0.182,-1.915 -0.183,-0.364 -0.456,-0.639 -0.913,-0.639 h -0.456 v -0.455 l 5.108,0.364 v 0.365 c -0.548,0 -1.003,0 -1.277,0.183 -0.183,0.182 -0.365,0.364 -0.456,0.638 -0.092,0.273 -0.183,0.821 -0.183,1.824 l -0.273,10.215 c 0,0.729 0,1.185 0.091,1.367 0.091,0.183 0.182,0.365 0.273,0.456 0.183,0.092 0.639,0.092 1.368,0.183 h 0.821 c 0.82,0.092 1.459,0 1.824,-0.091 0.274,-0.183 0.639,-0.457 0.913,-0.912 0.364,-0.456 0.637,-1.187 0.912,-2.19 l 0,0 z m 12.22,-12.221 0.183,5.654 h -0.365 c -0.091,-1.094 -0.274,-1.914 -0.547,-2.553 -0.365,-0.64 -0.73,-1.095 -1.186,-1.46 -0.547,-0.364 -1.003,-0.547 -1.55,-0.456 -0.547,0 -1.003,0.273 -1.368,0.821 -0.365,0.547 -0.547,1.095 -0.457,1.733 0,0.547 0.092,1.002 0.365,1.367 0.365,0.547 1.186,1.367 2.554,2.28 1.094,0.729 1.824,1.276 2.188,1.732 0.456,0.365 0.729,0.912 1.003,1.459 0.182,0.639 0.273,1.187 0.365,1.916 0,1.186 -0.274,2.279 -0.912,3.191 -0.639,1.004 -1.459,1.46 -2.462,1.55 -0.365,0 -0.638,0 -0.912,-0.09 -0.183,0 -0.547,-0.183 -1.094,-0.365 -0.547,-0.183 -0.912,-0.273 -1.095,-0.273 -0.091,0 -0.183,0 -0.273,0.183 -0.092,0.091 -0.183,0.364 -0.183,0.729 h -0.273 l -0.182,-5.563 H 87.6 c 0.182,1.186 0.365,2.006 0.638,2.554 0.274,0.547 0.639,1.003 1.186,1.368 0.548,0.365 1.095,0.547 1.642,0.547 0.73,-0.091 1.277,-0.364 1.642,-0.912 0.364,-0.548 0.547,-1.186 0.547,-1.915 0,-0.456 -0.091,-0.821 -0.273,-1.186 -0.182,-0.456 -0.456,-0.821 -0.73,-1.095 -0.273,-0.273 -0.82,-0.729 -1.824,-1.459 -1.003,-0.73 -1.732,-1.277 -2.189,-1.733 -0.365,-0.456 -0.729,-0.911 -0.912,-1.459 -0.274,-0.547 -0.365,-1.186 -0.457,-1.915 0,-1.094 0.274,-2.189 0.821,-3.01 0.639,-0.911 1.368,-1.368 2.371,-1.459 0.547,0 1.186,0.183 1.915,0.548 0.273,0.182 0.548,0.272 0.639,0.272 0.183,0 0.273,-0.091 0.365,-0.272 0.091,-0.092 0.182,-0.365 0.182,-0.73 h 0.365 l 0,10e-4 z m 10.853,-0.181 v -0.457 l 3.922,-0.455 v 0.455 h -0.365 c -0.457,0.092 -0.821,0.365 -1.003,0.912 -0.091,0.274 -0.091,0.821 -0.091,1.733 l 0.457,6.657 c 0.091,1.643 0,2.918 -0.092,3.831 -0.182,0.912 -0.638,1.732 -1.186,2.462 -0.638,0.729 -1.551,1.095 -2.645,1.277 -1.186,0.091 -2.189,-0.091 -2.827,-0.639 -0.639,-0.547 -1.186,-1.276 -1.459,-2.28 -0.274,-0.729 -0.457,-2.098 -0.547,-4.013 l -0.365,-6.384 c -0.092,-1.004 -0.183,-1.642 -0.456,-1.916 -0.183,-0.272 -0.457,-0.455 -0.912,-0.364 h -0.456 v -0.365 l 4.833,-0.547 v 0.364 l -0.365,0.092 c -0.456,0.091 -0.821,0.273 -1.003,0.729 -0.091,0.365 -0.091,0.912 -0.091,1.824 l 0.456,7.113 c 0,0.639 0.091,1.368 0.273,2.189 0.092,0.729 0.274,1.368 0.548,1.823 0.182,0.457 0.547,0.729 0.912,1.003 0.456,0.274 0.912,0.365 1.55,0.274 0.73,-0.091 1.368,-0.365 1.916,-0.912 0.548,-0.547 0.913,-1.186 1.003,-1.915 0.183,-0.73 0.273,-2.006 0.183,-3.648 l -0.456,-6.657 c -0.092,-1.004 -0.183,-1.642 -0.365,-1.824 -0.183,-0.364 -0.547,-0.456 -1.003,-0.456 l -0.366,0.094 0,0 z m 4.469,-1.369 3.01,-0.546 8.025,10.853 -0.912,-9.303 c -0.091,-1.004 -0.273,-1.642 -0.365,-1.824 -0.273,-0.365 -0.638,-0.456 -1.094,-0.365 l -0.365,0.092 v -0.456 l 3.83,-0.729 0.091,0.455 -0.456,0.092 c -0.456,0.091 -0.73,0.365 -0.912,0.821 -0.091,0.273 -0.091,0.82 0,1.732 l 1.276,13.681 h -0.273 l -8.573,-11.583 0.912,9.941 c 0.092,1.003 0.274,1.642 0.457,1.823 0.182,0.274 0.547,0.365 1.003,0.274 h 0.364 l 0.091,0.455 -3.922,0.729 v -0.455 l 0.365,-0.092 c 0.456,-0.091 0.821,-0.364 0.913,-0.821 0.091,-0.272 0.091,-0.911 0,-1.732 L 111.22,530.29 c -0.365,-0.456 -0.638,-0.821 -0.821,-0.912 -0.183,-0.183 -0.456,-0.273 -0.73,-0.364 -0.182,0 -0.456,0 -0.729,0 l -0.09,-0.457 0,0 z m 24.077,-5.38 3.831,-1.095 0.091,0.455 -0.183,0.092 c -0.183,0 -0.364,0.183 -0.638,0.456 -0.183,0.183 -0.456,0.547 -0.638,0.913 -0.183,0.455 -0.365,1.094 -0.547,1.914 l -1.824,6.84 0.456,4.013 c 0.182,1.004 0.365,1.551 0.547,1.733 0.182,0.273 0.547,0.365 1.003,0.273 l 0.365,-0.091 0.091,0.455 -4.742,1.187 v -0.365 l 0.365,-0.091 c 0.456,-0.183 0.729,-0.456 0.912,-0.912 0.091,-0.273 0.091,-0.911 -0.091,-1.824 l -0.456,-3.739 -3.921,-5.928 c -0.457,-0.73 -0.821,-1.095 -1.003,-1.277 -0.091,-0.182 -0.365,-0.364 -0.821,-0.547 -0.182,0 -0.274,0 -0.547,0 v -0.365 l 4.651,-1.275 0.091,0.455 h -0.274 c -0.183,0.091 -0.456,0.273 -0.638,0.456 -0.183,0.273 -0.273,0.547 -0.183,0.912 0,0.273 0.274,0.729 0.638,1.368 l 3.01,4.56 1.551,-5.563 c 0.182,-0.821 0.274,-1.367 0.274,-1.732 -0.092,-0.273 -0.092,-0.455 -0.183,-0.547 -0.182,-0.183 -0.274,-0.274 -0.457,-0.365 -0.091,0 -0.364,0 -0.638,0.091 l -0.092,-0.457 z m -68.765,8.299 v 2.098 l -1.916,4.742 1.916,0.365 v 0.912 l -2.281,-0.457 -1.003,2.372 c -0.182,0.639 -0.364,1.095 -0.364,1.368 0,0.273 0,0.455 0.182,0.729 0.182,0.183 0.456,0.364 1.003,0.547 v 0.457 l -3.101,-0.64 v -0.547 c 0.273,0 0.456,-0.092 0.547,-0.183 0.273,-0.364 0.729,-1.094 1.094,-2.188 l 3.923,-9.575 0,0 z m -5.564,-3.557 v -0.456 l 0.365,0.091 -0.092,0.457 -0.273,-0.092 z m 0,-0.456 v 0.456 h -0.091 c -0.457,-0.183 -0.821,-0.092 -1.095,0.272 -0.183,0.184 -0.274,0.73 -0.456,1.643 l -2.098,13.315 -0.273,-0.091 -5.198,-15.322 -1.55,9.85 c -0.183,0.912 -0.183,1.55 -0.091,1.916 0.182,0.364 0.456,0.638 0.821,0.82 l 0.456,0.092 -0.091,0.455 -3.83,-1.367 v -0.092 l 0.091,-0.365 0.365,0.183 c 0.456,0.183 0.82,0.091 1.094,-0.273 0.183,-0.183 0.274,-0.729 0.457,-1.642 l 1.732,-11.035 c -0.182,-0.639 -0.365,-1.095 -0.547,-1.276 -0.091,-0.274 -0.364,-0.548 -0.638,-0.821 -0.183,-0.091 -0.365,-0.182 -0.729,-0.273 l 0.091,-0.456 3.009,1.003 4.743,14.228 1.459,-9.12 c 0.183,-1.004 0.183,-1.642 0.092,-1.915 -0.092,-0.365 -0.457,-0.639 -0.821,-0.821 l -0.365,-0.092 v -0.455 l 3.463,1.183 0,0 z m 0,15.96 v 0.547 h -0.456 l 0.091,-0.455 c 0.092,0 0.183,-0.092 0.365,-0.092 l 0,0 z m -13.497,-15.96 c 0.091,-0.548 0.091,-1.003 0,-1.551 v 1.551 z m 0,-1.551 v 1.551 c 0,0.729 -0.183,1.551 -0.365,2.371 -0.548,2.28 -1.551,4.014 -3.01,4.925 -0.73,0.548 -1.459,0.821 -2.189,0.821 v -1.095 c 0.365,-0.091 0.729,-0.273 1.003,-0.548 1.003,-0.729 1.732,-2.371 2.371,-4.742 0.638,-2.645 0.729,-4.834 0.364,-6.475 -0.273,-1.277 -1.003,-2.28 -2.006,-2.827 -0.547,-0.274 -1.186,-0.365 -1.732,-0.184 v -1.093 c 0.729,0 1.368,0.181 2.097,0.546 1.369,0.73 2.372,2.189 3.01,4.195 0.274,0.823 0.457,1.735 0.457,2.555 l 0,0 z m 0,13.498 v 0.092 l 0,0 v -0.092 z m -5.564,-20.793 v 1.093 c -0.274,0.092 -0.638,0.274 -0.912,0.456 -1.003,0.912 -1.824,2.555 -2.462,5.017 -0.638,2.463 -0.729,4.651 -0.365,6.384 0.365,1.277 1.003,2.189 1.916,2.736 0.638,0.365 1.186,0.365 1.824,0.183 v 1.095 c -0.638,0.091 -1.368,-0.092 -2.006,-0.457 -1.277,-0.729 -2.28,-1.914 -2.918,-3.557 v -8.299 c 0.638,-1.915 1.642,-3.191 3.009,-4.013 0.637,-0.365 1.276,-0.638 1.914,-0.638 l 0,0 z m -4.925,-3.284 v -0.456 l 0.729,0.456 -0.091,0.456 -0.365,-0.274 c -0.09,-0.091 -0.181,-0.091 -0.273,-0.182 z m 0,-0.456 v 0.456 c -0.273,-0.091 -0.548,-0.091 -0.821,0.091 -0.183,0.091 -0.456,0.639 -0.73,1.551 l -3.101,9.485 c -0.182,0.729 -0.365,1.276 -0.365,1.551 0,0.181 0.091,0.455 0.183,0.638 0.182,0.365 0.365,0.639 0.547,0.729 l 0.456,0.274 -0.182,0.455 -2.189,-1.551 v -2.826 c 0.092,-0.092 0.092,-0.183 0.092,-0.274 l 3.101,-9.484 c 0.273,-0.821 0.365,-1.277 0.365,-1.55 0,-0.274 0,-0.457 -0.183,-0.73 -0.09,-0.273 -0.364,-0.548 -0.547,-0.73 l -0.365,-0.273 0.091,-0.364 3.648,2.552 0,0 z m 0,8.391 c -0.091,0.364 -0.183,0.639 -0.273,1.004 -0.547,2.371 -0.547,4.56 0.091,6.566 0,0.272 0.091,0.547 0.183,0.729 v -8.299 l -10e-4,0 z M 28.41,509.223 c 0.365,0.365 0.639,0.729 0.821,1.186 0.092,0.364 0.183,0.912 0.183,1.368 -0.091,0.364 -0.183,0.821 -0.365,1.459 l 0.274,0.183 1.368,-3.191 -2.281,-2.189 v 1.184 z m 0,-1.186 v 1.186 l 0,0 -1.276,-1.368 -4.834,10.305 c -0.365,0.821 -0.547,1.459 -0.547,1.733 0,0.456 0.273,0.82 0.638,1.185 l 0.273,0.365 -0.182,0.365 -3.191,-3.191 v -0.548 c 0.364,0.183 0.638,0.183 0.82,0.091 0.183,-0.091 0.547,-0.547 0.821,-1.277 l 4.834,-10.306 -1.095,-1.094 c -0.456,-0.456 -0.821,-0.729 -1.003,-0.821 -0.273,-0.091 -0.638,0 -1.003,0.184 -0.273,0.182 -0.638,0.546 -0.912,1.094 l -0.274,-0.273 1.55,-3.01 5.381,5.38 0,0 z m 0,17.693 v 2.826 l -2.188,-1.459 0.183,-0.455 0.365,0.272 c 0.365,0.274 0.73,0.274 1.003,0.092 0.182,-0.091 0.455,-0.546 0.637,-1.276 l 0,0 z m -9.119,-26.174 v -3.101 l 0.546,-0.365 0.274,0.273 -0.82,3.193 z m 0,-3.101 v 3.101 l -2.554,10.671 c -0.274,1.186 -0.365,1.914 -0.365,2.461 0.091,0.456 0.273,0.913 0.547,1.46 l -0.183,0.274 -1.095,-1.369 v -5.289 l 0.365,-1.551 -0.365,-0.547 v -1.186 l 0.638,0.82 1.642,-6.749 -2.28,1.46 v -1.096 l 3.65,-2.46 0,0 z m 0,21.614 v 0.548 l -0.73,-0.73 0.182,-0.365 0.273,0.365 c 0.092,0 0.183,0.091 0.275,0.182 z m -7.57,-27.999 0.912,-1.095 c 0.456,-0.638 0.821,-1.095 0.821,-1.459 0,-0.456 -0.091,-0.911 -0.365,-1.368 l -0.273,-0.456 0.273,-0.273 2.463,4.378 -0.182,0.273 -0.273,-0.456 c -0.274,-0.547 -0.639,-0.82 -1.004,-0.729 -0.182,0 -0.547,0.365 -1.003,0.912 l -1.368,1.642 v -1.369 l -10e-4,0 z m 3.921,8.846 v 1.096 l -2.188,1.55 2.188,2.919 v 1.186 l -2.827,-3.739 -1.094,0.729 v -1.186 l 3.921,-2.555 0,0 z m 0,8.848 v 5.289 l -2.188,-2.918 0.182,-0.365 c 0.365,0.457 0.639,0.639 0.821,0.639 0.182,0 0.365,-0.092 0.457,-0.273 0.183,-0.274 0.364,-0.729 0.546,-1.551 l 0.182,-0.821 z m -7.934,-31.739 1.915,3.466 -2.006,15.503 4.104,-4.924 v 1.368 l -5.928,7.113 -0.182,-0.364 2.188,-16.689 -5.29,6.475 c -0.547,0.639 -0.821,1.095 -0.912,1.367 0,0.457 0.091,0.913 0.365,1.461 l 0.273,0.455 -0.273,0.273 -2.462,-4.377 0.182,-0.273 0.274,0.364 c 0.273,0.547 0.638,0.821 1.003,0.821 0.183,-0.092 0.547,-0.365 1.003,-0.912 l 6.019,-7.296 c 0.091,-0.639 0.091,-1.187 0.091,-1.46 0,-0.365 -0.091,-0.729 -0.182,-1.186 -0.092,-0.182 -0.183,-0.547 -0.457,-0.912 l 0.275,-0.273 0,0 z m 4.013,25.446 v 1.186 l -0.639,0.455 c -0.456,0.274 -0.729,0.548 -0.912,0.73 -0.091,0.183 -0.091,0.456 -0.091,0.729 0,0.274 0.182,0.729 0.639,1.276 l -0.274,0.365 -2.553,-3.466 0.182,-0.365 c 0.365,0.365 0.639,0.548 0.913,0.548 0.365,0 0.912,-0.273 1.733,-0.82 l 1.002,-0.638 z"
   id="path3053"
   style="fill-rule:evenodd" />
</g>
</svg>